<?xml version="1.0" encoding="UTF-8"?>
<svg id="_Слой_2" data-name="Слой 2" xmlns="http://www.w3.org/2000/svg" viewBox="0 0 539.29 487.39">
  <defs>
    <style>
      .cls-1 {
        fill: #f4c338;
      }

      .cls-1, .cls-2, .cls-3, .cls-4, .cls-5, .cls-6, .cls-7, .cls-8, .cls-9, .cls-10, .cls-11, .cls-12, .cls-13 {
        stroke-width: 0px;
      }

      .cls-2 {
        fill: #efe7d3;
      }

      .cls-3 {
        fill: #fef6e4;
      }

      .cls-4 {
        fill: #f7a491;
      }

      .cls-5 {
        fill: #35974d;
      }

      .cls-6 {
        fill: #f79c8d;
      }

      .cls-7 {
        fill: #fff;
      }

      .cls-8 {
        fill: #352424;
      }

      .cls-9 {
        fill: #0b0a08;
      }

      .cls-10 {
        fill: #faa928;
      }

      .cls-11 {
        fill: #f48c7f;
      }

      .cls-12 {
        fill: #f47458;
      }

      .cls-13 {
        fill: #f16d4a;
      }
    </style>
  </defs>
  <g id="_Слой_1-2" data-name="Слой 1">
    <g id="_Главная" data-name="Главная">
      <g>
        <ellipse class="cls-5" cx="296.01" cy="465.38" rx="243.28" ry="22.01"/>
        <g>
          <g>
            <g>
              <path class="cls-4" d="m135.37,424.64s1.39,15.2.48,20.16c-.12.66-.39,1.5-.71,2.43-.94,2.78,1.64,11.27,1.64,11.27l34.65.13c1.89,0,.63-1.19-.91-2.29-2.51-1.8-4.54-2.98-12.54-6.72-.52-.24-2.43-1.42-3.11-1.83-1.74-1.03-3.49-2.67-5.01-4.31-2.52-2.73-2.91-16.13-2.91-16.13l-11.58-2.71Z"/>
              <path class="cls-9" d="m154.86,447.79c-9.13,2.46-15.92.95-19.73-.53-.94,2.77-2.72,12.16-1.66,12.16,8.69,0,16.04,1.64,40.94,1.25.89-.01.78-3.08.2-3.75-1.61-1.87-19.06-8.72-19.75-9.13Z"/>
              <path class="cls-2" d="m91.91,244.17s.49,21.7,6.71,35.6c6.06,13.53,35.05,46.91,42.76,66.4-2.38,10.99-8.93,26.43-8.46,38.62.54,13.8-.27,50.33-.27,50.33l15.56.49,20.41-94.25-30.76-101.69-13.96-24.69-32,29.21Z"/>
              <path class="cls-4" d="m25.44,403.02s-9.56,13.12-13.77,16.43c-2.26,1.77-8.38,4.16-9.03,7.1-.65,2.94,27.74,28.91,27.74,28.91,1.5,1.33,1.33-.51.88-2.46-.75-3.2-1.53-5.56-5.3-14.17-.25-.56-.94-2.84-1.2-3.64-.67-2.04-.92-4.58-.98-6.96-.1-3.95,9-14.92,9-14.92l-7.34-10.3Z"/>
              <path class="cls-9" d="m24.75,435.19c-9.02-4.44-13.38-10.42-15.39-14.27-2.7,1.55-9.97,4.87-9.33,5.79,5.02,7.28,10.23,16.34,30.39,33.5.72.61,3.68-2.93,3.69-3.87.03-2.62-9.1-20.34-9.36-21.15Z"/>
              <path class="cls-9" d="m139.9,88.98c-2.68-17.5-18.52-30.08-35.08-21.59-3.72,1.91-8.77,5.78-11.34,9.08-7.07,9.08-8.79,20.33-16.29,29.06-6.46,7.53-23.72,6.11-31.78,11.89-8.06,5.79-13.71,16.17-13.71,28.58,0,13.88,3.14,28.62,13.89,37.4,10.76,8.78,26.05,10.96,39.43,7.24,13.38-3.72,24.86-12.83,33.12-23.99,8.26-11.16,14.1-23.39,18.22-36.65,4.59-14.8,5.26-29.72,3.53-41.03Z"/>
              <path class="cls-6" d="m79.31,112.72s-20.33-36.28-25.27-43.99c-4.95-7.71-17.83-38.35-18.29-39.56-.46-1.21,8.87-15.71,6.79-16.21-2.08-.5-4.39,7.65-6.61,6.67C33.7,18.66,27.21-.94,25.94.04c-2.37,1.82,3.5,12.16,2.24,12.81-1.26.65-5.09-11.38-7.57-11.02-2.48.35,4.72,11.02,4.02,11.97-.69.94-8.17-9.11-9.52-6.97-.73,1.16,6.87,8.78,5.41,9.49-1.46.71-8.23-4.2-8.94-2.78-.72,1.42,6.26,3.36,8.34,7.18,2.09,3.82,5.64,5.47,7.11,12.54,1.48,7.07,3.68,32.67,11.23,45.44,7.56,12.77,24.17,41.03,24.17,41.03l16.87-7.01Z"/>
              <g>
                <path class="cls-11" d="m200.88,255.65c-2.24-1.93-7.03-6.16-6.59-6.6.57-.57,2.66-.16,3.32.09.66.25,1.46.48,2.12.74.66.25,1.4-.03,1.77-.83.37-.8-2.05-2.38-2.99-2.76-2.95-1.18-11.46-2.75-12.35-2.96-1.06-.24-13.18-15.01-17.74-19.74h0c-7.23-7.97-14.26-16.51-15.02-17.36l-19.8-41.58-18.07,1.32s21.32,46.46,22.65,48.66c.63,1.05,18.81,18.21,18.82,18.2,9.49,7.88,17.86,14.81,19.43,16.19,0,0,3.59,5.38,5.68,8.94,1.34,2.28,3.19,4.1,4.54,5.35,3.75-3.39,8.52-4.41,12.94-6.79.44-.27.86-.56,1.27-.86Z"/>
                <path class="cls-10" d="m124.93,132.46s13.97,6.67,20.85,48.2l-23.68,6.6-9.85-26.77,12.68-28.03Z"/>
              </g>
              <path class="cls-3" d="m93.01,230.28s-12.03,18.07-14.9,33.02c-2.79,14.56,1.85,58.53-3,78.91-8.25,7.64-22.47,16.55-29.06,26.81-7.47,11.62-29.06,41.1-29.06,41.1l12.47,9.32,70.74-65.56,28.64-87.46,9.83-25.58-45.66-10.56Z"/>
              <path class="cls-1" d="m102.75,127.48s-15.93-1.01-22.23,5.84c-6.3,6.85,13.98,61.07,15.13,69.79,1.15,8.72-9.4,26.12-9.4,26.12,0,0,43.84,20.49,54.53,13.43,0,0-1.71-69.9-2.86-76.13-1.15-6.23-10.69-31.57-12.99-34.06-2.29-2.49-22.18-4.98-22.18-4.98Z"/>
              <path class="cls-4" d="m108.05,106.24s-.08.47-.23,1.26c-.71,3.82-3.45,16.5-5.29,19.98-2.23,4.21,7.64,17.64,17.15,16,2.83-.49-2.39-12.34-2.14-13.6.48-2.4,1.13-5.68,1.8-9.04.38-1.9.76-3.82,1.11-5.63,1.02-5.14,1.85-9.34,1.85-9.34l-14.25.35Z"/>
              <path class="cls-12" d="m107.82,107.5c.15-.8.23-1.26.23-1.26l14.25-.35s-.83,4.2-1.85,9.34c-.36,1.8-.73,3.71-1.11,5.59-2.2-.32-4.5-1.39-6.8-3.4-2.51-2.19-4.16-4.83-5.15-7.65.18-.9.32-1.67.43-2.26Z"/>
              <path class="cls-4" d="m117.64,73.93s-6.71-.77-10.92,4.66c-4.21,5.43-8.74,22.23,1.71,31.36,10.45,9.13,20.78-1.21,22.32-12.16,1.53-10.96,2.13-24.25-13.1-23.85Z"/>
              <path class="cls-4" d="m133.84,97.62c-1.25,2.42-3.34,3.76-4.68,2.99-1.34-.77-1.41-3.35-.16-5.77,1.25-2.42,3.34-3.76,4.68-2.99,1.34.77,1.41,3.35.16,5.77Z"/>
              <path class="cls-9" d="m118.39,72.14s-8.97,15.97-15.39,16.71c-6.42.74-7.26,9.22-7.26,9.22,0,0,2.29-19.56,8.65-23.33,6.35-3.77,14-2.61,14-2.61Z"/>
              <path class="cls-4" d="m104.69,92.86c.52,2.84-.53,5.44-2.34,5.81-1.82.37-3.71-1.63-4.23-4.46-.52-2.84.53-5.44,2.34-5.81,1.82-.37,3.71,1.62,4.23,4.46Z"/>
              <path class="cls-1" d="m73.68,100.96s22.49,24.13,25.83,33.85c3.34,9.72-3.26,23.63-12.38,24.24-9.12.61-29.41-42.82-29.41-42.82l15.96-15.27Z"/>
            </g>
            <g>
              <path class="cls-3" d="m323.59,306.18l-1.59,5.81,9.74,3.07.33-2.42-8.47-6.46Zm.46,5.35l.91-2.62,5.71,4.21-6.63-1.59Z"/>
              <g>
                <g>
                  <path class="cls-12" d="m356.22,286.23l-3.16-14.24-18.96,11.77,10.84,8.73s3.42-8.88,11.27-6.26Z"/>
                  <path class="cls-9" d="m232.78,339.22s-21.89,9.78-46.11,21.89c-24.22,12.11-30.04,10.94-33.53,7.45-3.49-3.49-3.73-11.29-3.73-11.29,0,0-5.71,8.27-2.79,18.86,2.91,10.59,11.29,10.71,11.29,10.71l6.06-3.61-3.96,7.1s8.56,4.48,16.53-3.49c7.98-7.97,9.67-13.04,9.67-13.04,0,0-3.14,12.34-6.29,15.48,0,0,8.85,3.96,14.09-3.14,5.24-7.1,7.57-16.18,7.57-16.18l-1.98,16.65s8.15-3.14,12.58-16.06l-2.33,12.22s8.22-11.39,11.56-24.09c3.34-12.7,10.33-14.09,10.33-14.09l1.05-5.35Z"/>
                  <path class="cls-9" d="m274.52,381.89s.8,26.99-17.22,36.88c-4.38,2.4-11.44,11.17-10.05,15.99,1.32,4.59,12.1,14,12.1,14,0,0,7.49.55,10.88,9.04.54,1.35-1.9,1.01-1.9,1.01l-19.09.02-16.46-28.08,1.12-17.6,10.71-27.4,20.49-3.29,9.42-.57Z"/>
                  <path class="cls-9" d="m364.58,365.09s24.47,36.76,29.81,44.73c3.73,5.56,3.73,12.54,3.73,12.54,0,0-1.04,11.18-3.25,13.39-.35.34-.91.6-1.63.77-5.61,1.39-10.6-3.9-9.02-9.45.73-2.57,1.32-4.92,1.32-5.88,0-2.56-1.16-2.79-1.16-2.79l-27.01-15.57-8.85-25.87,16.07-11.87Z"/>
                  <path class="cls-8" d="m346.84,373.21l-4.42,34.97,2.1,39.77s8.62,2.1,11.18,6.52c2.56,4.42,2.09,5.12,2.09,5.12h-20.49s-16.77-39.87-16.77-44.29-4.42-29.1-4.42-32.36,2.79-17.87,12.57-19.04c9.78-1.16,18.16,9.31,18.16,9.31Z"/>
                  <path class="cls-8" d="m375.24,280.63l-5.28-7.14s-17.39-4.97-24.84,2.48c-2.38,2.38-5.05,5.84-6.11,10.39-.55,2.38-.65,7.21-.61,11.52.05,4.83-.93,8.02-2.85,12.37-3.43,5.23-17.61,16.19-23.26,17.56l3.98-.52s-7.63,4.05-13.93,5.12c-24.49,3.84-61.4,4.55-69.61,6.89-9.78,2.8-15.72,31.66-13.04,46.22,2.68,14.55-17.24,8.72-22.05,18.12-4.54,8.88,12.91,49.72,12.91,49.72,0,0,4.52,5.5,5.33,6.31h19.72s-.62-12.73-10.48-15.99c-9.86-3.26-8.46-24.29-8.46-24.29,0,0,28.18,3.88,42.15-14.44,10.76-14.1,9.73-17.9,8.7-18.9,5.16,2.86,41.17,22.35,59.3,18.9,19.56-3.73,24.06-12.3,24.06-12.3l.39,5.32s13.16-4.77,11.88-15.48c0,0,1.98,1.4,1.98,4.42,0,0,5.71-7.33,5.71-30.62,0-12.99-.47-45.9-.47-45.9,0,0,23.39-4.29,26.43-7.33,2.06-2.06,4.77-17.14,4.77-17.14l-26.31-5.33Z"/>
                  <path class="cls-9" d="m334.1,283.75s4.72,10.23,9.61,11.78c4.89,1.55,9.35-23.55,9.35-23.55,0,0-6.86-2.64-12.72,3.23-2.32,2.32-6.23,8.54-6.23,8.54Z"/>
                </g>
                <path class="cls-9" d="m349.09,379.23c-5.84,6.77-.48.56-4.49,5.21-.83-8.21,1.76-18.46,3.9-26.59-3.64,3.9-8.49,11.67-10.78,14.99,4.13-7.11,3.09-20.85,2.27-28.92-.02.03-4.76,5.63-6.71,7.95-.38-3.66-1.01-11.75.24-15.3,1.28-3.64,5-7.9,7.78-10.56-3.11,2.58-6.97,6.57-8.47,10.29-2.07,5.11-.58,17.81-.54,18.73,6.93-7.85,2.2-2.5,6.54-7.45.45,6.81,1.12,20.95-2.04,26.59,3.73-2.36,7.25-7.45,9.39-11.34-5.59,14.44-1.97,22.9-1.96,23.13-.03.03.3-.39,4.73-6.13.24.89.75,2.78.8,3.7,0-.34-.44-3.24-.66-4.3Z"/>
              </g>
              <path class="cls-13" d="m333.84,308.91l-3.17,6.65s3.02,22.5,39.99,19.99l1.21-9.53s-33.71-1.17-38.03-17.11Z"/>
              <rect class="cls-13" x="268.63" y="224.25" width="2.73" height="120.6" transform="translate(-103.32 404.99) rotate(-64.38)"/>
            </g>
            <polygon class="cls-3" points="216.79 258.82 213.82 255.78 196.88 249.6 177.73 258.82 200.03 281.38 201.64 275.9 187.64 262.01 198.76 254.72 200.42 255.69 206.2 259.05 216.79 258.82"/>
            <circle class="cls-1" cx="212.16" cy="271.4" r="15.71" transform="translate(-1.16 .91) rotate(-.24)"/>
            <path class="cls-3" d="m220.15,271.2c0,4.79-3.88,8.67-8.67,8.67s-8.67-3.88-8.67-8.67,3.88-8.67,8.67-8.67,8.67,3.88,8.67,8.67Z"/>
            <path class="cls-6" d="m196.45,245.16s4.86,9.05,4.36,10.75c-.27.92-7.94,6.32-12.4,6.32s.84-9.6,1.79-8.65c.95.95.34,3.1.34,3.1,0,0,.81-6.62,1.88-7.68,1.07-1.07,1.47,1.19,1.47,1.19,0,0-1.6-5.63,0-6.15,1.6-.51,2.56,1.11,2.56,1.11Z"/>
          </g>
          <path class="cls-7" d="m123.72,102.68l-10.66-.92s-.1,4.13,4.58,4.68c5.7.66,6.08-3.76,6.08-3.76Z"/>
        </g>
      </g>
    </g>
  </g>
</svg>