<?xml version="1.0" encoding="UTF-8"?>
<svg id="_Слой_2" data-name="Слой 2" xmlns="http://www.w3.org/2000/svg" viewBox="0 0 514.49 451.21">
  <defs>
    <style>
      .cls-1 {
        fill: #efe7d3;
      }

      .cls-1, .cls-2, .cls-3, .cls-4, .cls-5, .cls-6, .cls-7, .cls-8, .cls-9, .cls-10, .cls-11 {
        stroke-width: 0px;
      }

      .cls-2 {
        fill: #fef6e4;
      }

      .cls-3 {
        fill: #f7a491;
      }

      .cls-4 {
        fill: #35974d;
      }

      .cls-5 {
        fill: #fff;
      }

      .cls-6 {
        fill: #352424;
      }

      .cls-7 {
        fill: #0b0a08;
      }

      .cls-8 {
        fill: #fe875e;
      }

      .cls-9 {
        fill: #f47458;
      }

      .cls-10 {
        fill: #f8a492;
      }

      .cls-11 {
        fill: #f16d4a;
      }
    </style>
  </defs>
  <g id="_Слой_1-2" data-name="Слой 1">
    <g id="_Главная" data-name="Главная">
      <g>
        <ellipse class="cls-4" cx="250.92" cy="434.05" rx="250.92" ry="17.16"/>
        <g>
          <g>
            <path class="cls-10" d="m310.54,162.58c-7.98-.06-7.73,1.29-8.75,1.25-1.21-.04-14.03-9.45-14.03-9.45,0,0-37.99-27.46-39.98-29.02l-23.55-42.69-24.85,6.73s26.87,45.7,28.7,47.82c1.83,2.12,57.73,33.01,62.56,35.9,0,0,4.4,5.64,7.29,9.09,2.88,3.45,7.2,5.35,8.17,6.19.14.12,3.53,2.72,8.59,4.75,4.36,1.75,1.11-1.96,1.11-1.96,0,0-7.44-4.74-6.94-5.28.38-.42,4.28,2.42,9.09,4.41,1.24.51,2.46,1.01,3.58,1.46,2.95,1.18,4.6-.34,1.72-2.09-1.02-.62-2.73-1.6-4.06-2.11-1.43-.56-2.55-1.55-3.68-2.21-2.23-1.31-3.88-2.24-3.77-2.31.14-.09-.11-.67,1.22-.17,1.6.6,4.68,2.65,7.11,3.35,1.38.4,4.19,1.4,4.19,1.4,0,0,5.06,1.36,5.22.65.34-1.56-2.67-2.98-4.62-3.27-1.12-.83-4.12-1.8-4.12-1.8,0,0-5.57-3.36-5.07-4.19.2-.33,3.72.82,7.5,1.73,4,.96,6.94,1.46,7.29.71.55-1.19-2.59-2.2-2.59-2.2,0,0-2.77-.89-3.67-1.26-1.05-.43-4.08-1.98-4.08-1.98,0,0-10.29-5.88-9.75-6.63.53-.74,2.63-2.13,3.4-2,.77.14,2.03,1.14,2.8,1.28.77.14,2.46.27,2.74-.69.28-.95-3.67-3.7-3.67-3.7,0,0-2.79-1.7-5.1-1.71Z"/>
            <path class="cls-1" d="m241.1,109.5s-8.61,5.52-12.09,7.22c-2.89,1.42-16.5,5.35-16.5,5.35,0,0-9.27-21.27-13.12-31.8-4.66-12.78-6.33-30.88-4.68-31.09,4.63-.57,10.82-.36,15.98,3.16,17.86,12.16,30.4,47.16,30.4,47.16Z"/>
            <path class="cls-8" d="m301.59,171.36c3.23,1.09,6.74,1.03,8.72-1.76-.28,3.66-6.05,4.53-8.72,1.76Z"/>
          </g>
          <path class="cls-3" d="m122.58,402.25s-.84,14.87-.84,14.9c-.31,1.89-1.52,6.55-1.52,8.27,0,6.45,28.62-5.47,22.2-8.33-.58-.26-3.62-2.22-3.81-4.41-.29-3.38-1.04-10.22-1.04-10.22l-14.98-.21Z"/>
          <path class="cls-7" d="m142.69,417.15s-6.72,1.97-10.16,2.47c-3.44.49-7.98-3.66-10.41-2.54-2.68,1.23-2.57,12.35-2.57,12.35,0,0,36.03,3.16,46.16-.11,4.01-1.3-9.28-7.57-23.02-12.17Z"/>
          <path class="cls-3" d="m74.92,401.48s-.84,14.87-.84,14.9c-.31,1.89-1.52,6.55-1.52,8.27,0,6.45,28.62-5.47,22.2-8.33-.58-.26-4.52-3.68-4.71-5.87-.29-3.38-.14-8.76-.14-8.76l-14.98-.21Z"/>
          <path class="cls-7" d="m94.69,416.26s-6.72,1.97-10.16,2.47c-3.44.49-7.98-3.66-10.41-2.54-2.68,1.23-2.79,12.35-2.79,12.35,0,0,35.77,1.47,46.37-.11,4.17-.62-9.28-7.57-23.02-12.17Z"/>
          <path class="cls-7" d="m83.41,165.23s-4.85,25.09-2.87,44.11c1.98,19.02,2.13,86.61,2.13,86.61l-9.12,108.09,19.47.45s21.22-108.08,20.83-105.3c-.4,2.78,7.12-76.1,7.12-76.1l-25.3-60.24-12.25,2.38Z"/>
          <path class="cls-6" d="m90.19,149.03s-21.97,23.14-13.8,48.41c3.28,10.15,33.9,107.13,34.3,115.06.4,7.93,10.36,95.54,10.36,95.54l20.81-.63,4.5-97.41-5.95-131.25-12.63-22.14-37.59-7.59Z"/>
          <path class="cls-2" d="m223.59,73.72c-7.19-8.03-22.85-19.45-22.85-19.45,0,0-9.33-7.97-13.13-9.28-5.6-1.93-15.18-7.08-29.05,13.94-9.92,15.04-72.54,92.89-82.82,95.52l67.13,32.11c1.84-15.34,35.02-44.31,39.79-49.71,10.67-12.08,47.76-55.53,40.95-63.12Z"/>
          <path class="cls-3" d="m220.46,41.1l-20.91,12.24s-.59,17.84,6.25,22.48c5.74,3.89,10.1-5.45,10.1-5.45,0,0,7.78-10.77,13.68-14.13,5.91-3.36-9.12-15.15-9.12-15.15Z"/>
          <path class="cls-9" d="m216.95,48.95c.79,3.72,2.61,9.11,5.43,13.54,2.3-2.49,4.89-4.94,7.2-6.25,2.73-1.55.99-4.89-1.67-8.05-3.75-3.91-7.45-7.1-7.45-7.1l-4.02,2.35c-.26,1.52.25,4.26.51,5.5Z"/>
          <path class="cls-3" d="m231.35,10.43c-.35-.43-17.54,20.96-15.42,30.99,2.12,10.03,12.51,19.19,19.73,16.67,7.99-2.78,22.84-27.97,17.52-40.2-5.33-12.23-21.83-7.47-21.83-7.47Z"/>
          <path class="cls-7" d="m250.17,3.68c-7.49-4.17-19.72-5.36-28.85-.58-11.23,5.88-13.79,20.67-10.27,29.69,3.52,9.02-.51,14.12-.51,14.12l5.96-3.48s3.48-5.43,3.93-9.76c.45-4.33,6.77-3.56,9.85-5.52,2.37-1.51,5.4-6.42,9.24-8.97,0,0,9.67-1.19,14.42,1.48,8.11,4.55,6.95-11.01-3.78-16.98Z"/>
          <path class="cls-3" d="m225.45,31.75c.05,3.21-1.46,5.84-3.39,5.87-1.93.03-3.53-2.54-3.59-5.75s1.46-5.84,3.39-5.87c1.93-.03,3.53,2.54,3.59,5.75Z"/>
          <path class="cls-5" d="m243.06,48.79l-9.1-6.8s-2.41,3.68,1.51,6.79c4.77,3.79,7.59.02,7.59.02Z"/>
          <path class="cls-10" d="m256.64,191.3c-2-3.5-2.61-8.37-5.45-12.28-.96-1.31-2.52-2.83-4.32-4.36-14.4-10.06-51.91-36.04-53.3-37.93-1.65-2.24-24.9-49.05-24.9-49.05l24.58-3.51,20.21,43.55c1.84,1.72,37.03,32.42,37.03,32.42,0,0,6.97,6.42,10.82,9.47,1.96,1.37,3.89,2.3,5.58,3.05,2.13.94,6.15,3.37,6.94,4.18.91.95,2.73,2.95,3.81,4.18,1.08,1.22,2.39,2.61,2.89,3.33.3.44,1.29,1.08,2.02,1.52,1.09.66.8,2.32-.44,2.56-1.17.23-2.66-.61-3.59-1.14-2.61-1.49-5.64-5.2-5.85-4.79-.21.41,2.55,8.05,2.81,8.94.26.89,3.43,9.79,3.47,11.72.04,1.93-1.15,2.28-1.95,1.51-.69-.66-5.97-12.63-5.97-12.63,0,0-.68-1.52-1.05-.71-.38.81,4.4,11.68,4.8,13.44.41,1.75-.14,3.12-1.67,2.39-1.86-.89-6.24-12.8-6.24-12.8,0,0-.57-1.48-1.09-1.03-.51.46,3.7,9.64,3.67,10.66-.03,1.02-1.02,1.94-2.28.99-1.48-1.12-5.3-11.8-5.3-11.8,0,0-.52-.73-.74-.26-.22.46,2.82,8.55,2.45,9.66-.31.94-1.15.68-1.15.68-1.92-.16-3.78-8.43-5.79-11.93Z"/>
          <path class="cls-1" d="m173.37,111.78s8.06-1.86,13.29-3.76c3.5-1.27,18.82-7.4,18.82-7.4,0,0-4.18-27.29-7.69-37.26-12.89-36.61-32.76-13.69-35.65-8.21-6.46,12.26,11.23,56.64,11.23,56.64Z"/>
          <g>
            <path class="cls-1" d="m329.04,341.75s7.34,33.34,16.98,41.45l1.53,1.38v2.14h-4.79c-6.31,0-12.22,3.05-15.89,8.18h0c-.68.95-1.04,2.09-1.04,3.25v4.17l53.23-6.12s18.51-38.08,17.13-39.92c-1.38-1.84-57.52-17.43-57.52-17.43l-9.64,2.91Z"/>
            <path class="cls-2" d="m274.73,159.45l13.46,16.82s5.2,7.34,5.2,11.62-4.28,22.02-4.28,22.02c0,0-2.75,7.34-2.45,12.85.31,5.51-5.2,19.27-5.2,27.83s-8.87,18.05-6.73,36.71c2.14,18.66,18.66,48.33,18.66,48.33l3.06,76.16s-13.77,5.81-14.99,7.65c-1.22,1.84.61,7.95.61,7.95h20.8l.94-1.6c4.62-7.82,7.56-16.52,8.61-25.55l6.66-56.97s6.32,9.69,18.97,17.03c12.65,7.34,37.32,7.34,37.32,7.34,0,0-12.85,22.84,9.18,39.15l4.08,4.69-30.64,1.43c-2.89.13-5.67,1.14-7.98,2.89h0c-4.21,3.2-6.74,8.14-6.86,13.42h0l69.14-4.28.64-8.14c.11-1.46-.28-2.92-1.11-4.13l-2.79-4.05s13.05-8.36,13.67-18.15c0,0,4.69-1.02,8.97,1.02,4.28,2.04,12.85,15.5,36.51,12.64,23.66-2.86,44.26-17.13,46.3-32.63,0,0-9.79,15.09-29.98,18.35-20.19,3.26-44.87-16.31-44.87-16.31,0,0-7.55-25.08-16.32-40.17-8.77-15.09-74.65-86.05-74.65-86.05l.2-57.51h0c.13-10.64-2.86-21.09-8.6-30.05l-1.39-2.17-14.5-8.66c-1.44-.86-3.13-1.24-4.8-1.08l-10.27.98-22.23-18.56s-13.26,9.38-12.34,29.16Z"/>
            <path class="cls-1" d="m338.88,157.61s-5.71-2.04-11.63,2.45c-5.92,4.49-6.73,22.64-10.61,30.59-3.88,7.95-5.3,18.15,4.28,22.63,9.59,4.49,19.17-1.43,24.27,1.02,5.1,2.45,9.59-2.04,8.57-8.57-1.02-6.52-.2-42.82-14.89-48.12Z"/>
          </g>
          <path class="cls-11" d="m288.2,212.74s34.12,14.58,60.55,11.4c0,0,1.85,5.44-.04,10.66,0,0-36.46,2.44-62.05-11.03,0,0-2.87-6.55,1.54-11.03Z"/>
        </g>
      </g>
    </g>
  </g>
</svg>