<?xml version="1.0" encoding="UTF-8"?>
<svg id="_Слой_2" data-name="Слой 2" xmlns="http://www.w3.org/2000/svg" viewBox="0 0 1919.92 233.06">
  <defs>
    <style>
      .cls-1 {
        fill: #ecce80;
        stroke-width: 0px;
      }
    </style>
  </defs>
  <g id="_Слой_1-2" data-name="Слой 1">
    <path class="cls-1" d="m1919.92,0v203.96c-42.25-28.03-46.57-53.13-75-56.17-55.98-5.99-88.99,85.91-162.81,85.27-40.29-.35-72.96-28.09-94.65-46.51-49.93-42.39-45.32-14.78-85.82-25.84-27.53-7.51-40.5-26.6-67.22-18.95-42.56,12.2-44.45,16.17-81.71,24.12-3.78.81-18.74,4-34.07,0-45.06-11.75-22.87-67.14-71.94-93.48-26.91-14.45-65.41-14.81-90.87-10.34-72.17,12.67-78.16,74.44-124.6,75.79-51.31,1.48-73.9-73.04-121.5-70.62-45.36,2.31-46.43,71.06-109.8,82.68-39.76,7.29-81.05-12.13-121.16-31-76.2-35.86-69.14-62.44-109.8-69.77-81.65-14.71-144.76,86.2-233.48,73.93-62.7-8.68-65.89-63.89-126.14-65.9-54.89-1.84-75.19,43.23-148.11,49.91-22.02,2.01-42.77-.03-61.24-3.92V0h1919.92Z"/>
  </g>
</svg>