<?xml version="1.0" encoding="UTF-8"?>
<svg id="_Слой_2" data-name="Слой 2" xmlns="http://www.w3.org/2000/svg" viewBox="0 0 52.95 106.93">
  <defs>
    <style>
      .cls-1 {
        opacity: 0;
      }

      .cls-1, .cls-2, .cls-3 {
        fill: #000072;
      }

      .cls-4 {
        fill: #fff;
      }

      .cls-5 {
        fill: #f98ba4;
      }

      .cls-6 {
        opacity: .2;
      }

      .cls-7 {
        fill: #73963c;
      }

      .cls-8 {
        fill: #893153;
      }

      .cls-2, .cls-9 {
        opacity: .3;
      }

      .cls-10 {
        fill: #e9afaf;
      }

      .cls-11 {
        fill: #f9f9f9;
      }

      .cls-12 {
        fill: #6a6a9b;
      }

      .cls-13 {
        fill: #ff0049;
      }

      .cls-14 {
        fill: #ff336d;
      }

      .cls-15 {
        fill: #b3b3b3;
      }

      .cls-16 {
        fill: #d0d0d0;
      }
    </style>
  </defs>
  <g id="_Слой_1-2" data-name="Слой 1">
    <g id="_Главная" data-name="Главная">
      <g id="Logo_gor." data-name="Logo gor.">
        <g>
          <path class="cls-7" d="m33.68,106.93c-.33,0-.65-.05-.95-.14-.23.05-.46.08-.7.08-.1,0-.21,0-.31-.01-.88-.08-2.54-.6-3.85-3.12-1.14-2.21-1.12-5.98-.89-8.76.19-2.39.59-4.68,1.14-6.61-.3.06-.62.11-.95.15.14,1.96.06,3.97-.23,5.74-.22,1.31-.55,2.4-.97,3.25-.64,1.29-1.52,2.04-2.62,2.25-.15.03-.3.05-.45.06-.54.24-1.1.37-1.65.37-.22,0-.43-.02-.64-.06-.22-.04-.44-.1-.65-.18-.08,0-.15,0-.22,0-.83,0-1.56-.2-2.18-.6-.74-.47-1.29-1.22-1.59-2.16-.39-1.21-.32-2.49-.27-3.34,0-.08,0-.16.01-.24.06-1.31-.26-2.92-.92-4.62-.09,0-.17.02-.26.02-.06,0-.11,0-.17,0-.54,0-1.06-.11-1.54-.32-.28.06-.62.1-1.01.1-.07,0-.14,0-.21,0-1.3-.05-2.44-.66-3.2-1.7-.72-.98-.96-2.24-.71-3.75.08-.47.19-.87.27-1.16,0,0,.02-.09.03-.12-.09-.67-.3-2.4-.46-4.35,0-.03,0-.06,0-.09-.74-.31-1.41-.79-1.98-1.41-.82-.89-1.46-2.08-1.89-3.54v-.02c-.21-.72-.69-3.8-.57-6.39-.43-.46-.53-.97-.58-1.22-.06-.29-.09-.63-.09-1.02h0c0-.67.13-2.04.43-3.29v-.23s.18-2.25.57-3.58c-.15-.79-.3-1.66-.33-2.42-.11-2.26-.17-4.32.18-6.04-.04.02-.09.04-.14.06-.29.11-.61.17-.91.17-.48,0-.93-.14-1.3-.41-.28-.2-.65-.57-.81-1.2-.06-.23-.08-.47-.08-.73,0-.32.06-.68.15-1.12.16-.73.45-1.63.83-2.6.07-.17.25-.61.5-1.2-.18-.09-.34-.21-.48-.35-.49-.48-.69-1.17-.57-1.89.16-.94.71-2.14,1.15-2.99.03-.05.05-.1.08-.16.13-.25.31-.61.53-1,0,0,0,0,0,0-.31-.6-.25-1.15-.23-1.41.06-.58.26-1.27.62-2.09.78-1.79,2.17-3.89,3.91-5.92.05-.06.11-.13.16-.19.19-.71.57-1.34,1.11-1.81-1.23-4.33-.68-8.25-.35-9.82.31-1.5.75-2.74,1.27-3.59.21-.34.64-1.03,1.51-1.34.22-.08.46-.11.7-.11.41,0,.8.11,1.13.32.4.25.7.61.91,1.08.57,1.31,2.12,3.97,3.92,6.16-.23-1.49-.11-2.95.02-3.81.13-.93.34-1.71.61-2.32.14-.32.35-.74.74-1.1.41-.38.96-.6,1.55-.6.15,0,.3.01.45.04.65-1.62,1.54-2.99,2.28-3.96.7-.92,1.43-1.71,2.11-2.28.41-.34.76-.57,1.1-.72.2-.09.51-.21.92-.23.03,0,.06,0,.09,0,.59,0,1.15.24,1.53.67.02.02.03.03.04.05.41-.3.82-.57,1.22-.79,1.47-.82,2.93-1.25,4.23-1.25.37,0,.73.03,1.07.1.51.1.94.33,1.26.68.25.27.44.61.53.97.11,0,.21-.01.32-.01.05,0,.09,0,.14,0,.37.01.69.08.99.2.52.21.95.59,1.19,1.08.4.79.19,1.47.1,1.77v.05c-.1.29-.22.6-.41,1.02-.3.67-.7,1.44-1.13,2.24l-.14.27c-.1.18-.2.37-.29.55.02.01.04.03.07.04.56.39.9,1.04.9,1.72,0,.51-.14.95-.28,1.35-.14.4-.33.86-.57,1.37-.22.46-.54,1.09-.92,1.69,0,0,0,.02,0,.02,1.66-1.73,3.03-3.56,3.46-4.55.12-.26.31-.65.66-.99.41-.4.97-.63,1.53-.63.12,0,.24.01.35.03.55.1,1.01.38,1.39.85.19.24.35.52.5.85.49,1.14.72,2.81.82,4.01.14,1.65.31,5.44-.74,8.5.37.22.68.44.95.67.82.72,1.04,1.45,1.05,2,.09.11.18.22.27.33,1.34,1.67,2.31,3.28,2.88,4.35.33.6.61,1.19.83,1.69.22.5.37.92.44,1.33.04.25.08.62-.07,1.07.36.72.62,1.41.78,1.83h0c.33.94.53,1.74.65,2.24.07.33.13.62.17.87.04.26.08.55.03.92-.04.35-.17.67-.37.95-.13.18-.28.33-.46.46.29.74.52,1.45.67,2.03.33,1.26.51,2.21.55,2.89.01.23,0,.44,0,.63-.02.19-.05.58-.32,1.01-.23.37-.58.66-.99.82-.21.08-.44.12-.67.12-.26,0-.53-.05-.77-.15-.08-.03-.15-.07-.21-.1.3,2.61.21,4.93.04,6.59-.14,1.36-.5,2.87-1,4.26.26.76.41,1.73.47,2.94.03.62.02,1.14.01,1.46-.01.46-.04.8-.11,1.12v.03c-.03.13-.08.37-.23.64,0,.66-.06,1.44-.18,2.38-.09.77-.28,2.16-.52,2.88-.08.23-.27.8-.76,1.25-.01.17-.03.36-.04.57-.03.45-.06.94-.09,1.41-.04.6-.07,1.18-.11,1.57-.07.83-.61,4.78-1.09,8.07-.3,2.04-.57,3.84-.78,5.19-.29,1.81-.46,2.75-.58,3.22-.18.68-.31,1.1-.41,1.4-.02.08-.05.15-.07.21-.07.24-.12.4-.19.9-.05.36-.37,2.26-1.64,4.09-.9,1.3-2.06,2.23-3.42,2.74.02.76-.12,1.5-.4,2.16-.36.83-.94,1.46-1.67,1.82-.44.21-.92.32-1.42.32-.06,0-.12,0-.18,0-.58.37-1.25.58-1.92.58Z"/>
          <g>
            <g>
              <path class="cls-14" d="m24.92,47.55c-.88-.01-1.52.78-1.8,1.54-.42,1.08-.34,2.27-.3,3.4.14,1.4.5,2.87,1.45,3.96.62.73,1.61,1.1,2.56.97,1.07-.03,1.99-.81,2.42-1.76.73-1.6.77-3.41.63-5.14-.08-1.03-.44-2.17-1.36-2.75-.55-.34-1.27-.16-1.77.19-.25.35-.12.83-.16,1.23-.02,1.02.05,2.05-.14,3.05-.05.07-.09-.25-.11-.34-.12-1.24-.04-2.48-.15-3.72-.04-.44-.54-.55-.9-.62-.13-.02-.25-.03-.38-.03Z"/>
              <path class="cls-8" d="m22.48,41.97c-1.05.14-2.24-.35-3.28-.53-.28.28.51,1.59.57,1.91.58,1.12,1.37,2.96,1.99,4.06.26.25.64-1.6.62-1.82.49-1.07.67-1.93,1.8-2.46.73-.3,1.82-.07,1.98.81.07.77-.44,1.81-.22,2.56.32.28,1.36.05,1.25-.41-.05-.87-.62-2.07.03-2.83.83-.61,1.73-.09,2.36.52.72.65,1.23,2.52,1.44,3.45.3.34,1.13-2.24,1.23-2.45.55-1.33,1.16-2.26,1.67-3.6-.21-.36-1.77.57-2.1.58-1.98.55-3.87-.89-5.17-2.46-.78.99-2.68,2.37-4.17,2.67Z"/>
              <path class="cls-3" d="m26.31,33.3c-.95.06-2.1.06-2.79.82-.25.34-.25,1.05.31,1.02.42-.05.93-.05,1.1.41.3.45.16,1.04.37,1.5.6.45,1.45.6,2.13.21.73-.08.46-.85.62-1.35.06-.61.65-1.02,1.25-.87.57-.04.38-.87,0-1.08-.82-.67-1.99-.66-2.99-.67Z"/>
              <path class="cls-3" d="m24.17,35.53c-.19-.03-.49.13-.34.35.19.24.4.49.65.67.22.07.27-.21.22-.36-.05-.26-.12-.66-.46-.65-.02,0-.04,0-.06,0Z"/>
              <path class="cls-3" d="m28.69,35.53c-.17.26-.27.59-.28.9.09.21.32.07.41-.06.19-.2.38-.41.51-.66.02-.25-.28-.21-.44-.21-.07,0-.13,0-.2.04Z"/>
              <path class="cls-3" d="m27.72,43.38c-.41-.04-.57.41-.52.75-.03.79.44,1.59.12,2.35-.43.69-1.72.47-1.75-.4-.17-.78.4-1.58.03-2.33-.28-.45-.96-.35-1.36-.12-1.49,1.02-2.51,2.76-2.2,4.53,0,.32.54,1.57.71,1.05.47-.99,1.63-2.11,2.76-1.81.38.06.57.46.92.51.63-.35,1.51-.96,2.2-.57.68.31,1.12,1.72,1.45,2.35.3.24.49-.88.56-1.09.29-1.48-.1-3.3-1.21-4.41-.46-.45-1.06-.83-1.72-.84Z"/>
              <path class="cls-11" d="m5.44,58.95c-.48,1.74-1.21,3.35-1.13,5.17.01.36.56.81.64.5.13-.19.29-.73.41-.92-.29,2.38-.35,4.81.02,7.18.39,1.84.97,4.14,2.81,4.98.29.18,1.12.33.94-.18-.05-1.31-.26-2.99.16-4.26.16-.37.24-.24.2.11.03,2.95,0,5.9.43,8.83.13.96.3,1.94-.03,2.88-.26,1.1-.23,2.58.9,3.2.5.22,1.13.31,1.66.14.21-.38-.27-.8-.16-1.23.02-.8,0-1.93.84-2.36-.56,1.09-.78,2.63.2,3.55.94.81,2.62.16,2.72-1.1.17-.85-.08-1.8-.42-2.51.74.28.86,1.24.92,1.94.06.58-.18,1.12-.34,1.65.13.44.75.27,1.09.25,1.3-.29,1.74-1.85,1.55-3.02-.12-.76-.47-1.49-.34-2.28.17-3.53.3-7.31,0-10.83-.25-1.49-.41-3.27-1.68-4.27-1.88-1.31-4.42-1.47-6.56-.7-.64.23-1.37.89-1.65,1.51-.22-.53.34-1.04.71-1.37.3-.29,1.13-.35,1.44-.6-.3-.58-1.35-.97-1.75-1.52-.85-.98-1.55-3.13-1.94-4.35-.37-.27-.32.88-.33,1.12-.07.2.13,1.23-.07.89-.54-.87-.7-1.57-1.03-2.5-.11-.03-.16.01-.22.1Z"/>
              <path class="cls-11" d="m47.52,46.73c-1.21.46-2.23,1.7-3.13,2.58-1.33,1.53-3.05,3.16-4.39,4.68-.53.85-.77,1.72-1.46,2.48-2.59,3.21-6.61,4.99-10.63,5.37-3.53.21-7.1-1.02-10.17-2.76-1.92-1.1-3.57-2.82-4.67-4.74-.86-1.06-1.98-1.63-2.95-2.58-1.16-.96-3.4-3.41-4.56-4.37-.27.33-.56,1.53-.59,1.85-.48,3.05.78,8.46,1.32,11.5.26.37.47-1.55.47-1.77.11-.33-.04-1.27.27-1.47.37.17.23.77.34,1.1.25,1.69.37,3.27,1.49,4.58.25.48,1.44,1.52,2.03,1.95.77.39,1.73-.23,2.55-.09,1.79.13,3.87.85,4.63,2.61.88,1.94.52,3.27.76,5.34.03.61-.02,2.09.01,3.44-.04,1.95-.03,4.31-.06,6.26.59,1.3,1.71,2.86,3.29,3.05.45-.1-.2-.8-.27-1.06-.11-.22-.2-.46-.27-.69.98,1.31,2.48,2.77,4.21,2.71,1.79.1,3.47-.45,4.95-1.48-.06.36-.56.82-.29,1.11,1.06-.16,2.4-.93,3.23-1.57.21-.03.02,1.12-.13,2.07-.2,1.68-.41,3.3-.69,4.95-.47.13-1.24,1.03-1.42,1.56-.35,1.19.21,2.68.3,3.86.21,1.77,1.93,3.09,3.66,3.3,1.64.28,3.63-.09,4.85-1.3,1.41-1.29,2.09-3.54,2.43-5.36,1.04-3.64,1.38-7.46,1.97-11.19.53-3.57.82-6.91,1.02-10.51.09-.35.09-.77.62-.76.53-.19.5-1.74.66-2.18.21-1.44.18-2.39.07-3.85-.22-.42-.75-.81-.59-1.32.35.17.71,1.2,1.1,1.06.05-1.21-.15-4.27-.45-5.45.31-.93.54-1.59.73-2.17.89-3.26.6-6.65.06-9.96-.12-.41,0-.79-.32-.77Z"/>
              <path class="cls-11" d="m5.05,56.91c-.36.41-.67,3.14-.7,3.66.17.34,1.27-1.45,1.32-1.73,0-.38-.24-1.59-.46-1.92-.05-.03-.11-.04-.16-.02Z"/>
              <path class="cls-11" d="m19.12,83.49c-.24,0,.12,1.18-.13,1.44-.38.92-1.55,2.12-2.58,2.08-.52-.03.03,1.03.14,1.3.71,1.82,1.09,3.35,1.02,5.3.12,1.1-.14,2.62.56,3.59.27.31.99.92,1.43.74.18-.35-.38-.89-.35-1.26-.13-.88-.07-1.94.64-2.56-.24.94-.4,2.21-.05,3.14.34.65,1.27,1.14,2.02.93.2-.32-.48-.82-.44-1.18-.1-.99-.03-2.13.6-2.95.25-.2-.05.46-.02.62-.07.89-.4,2.16.07,2.99.53.6,1.67.02,1.99-.58.99-1.72,1.12-4.14,1.25-6.08.04-1.44-.04-2.93-.33-4.34-.44-.43-1.34-.51-1.82-.89-.31-.24-1.03-.31-1.4-.17-.89.09-1.14-.54-1.74-1.15-.1-.07-1-1-.87-1Z"/>
              <path class="cls-11" d="m33.26,85.31c-.69.44-1.4.86-2.14,1.2-.7,1.11-.96,2.45-1.28,3.71-.72,3.54-1.36,7.28-.77,10.88.24,1.43,1.07,3.21,2.5,3.78.61.28,1.51-.18,1.49-.88,0-.88-.34-1.95-.75-2.73.93.32,1.11,1.46,1.05,2.32.07.38-.43,1.26.09,1.39,1.03-.08,2.05-.99,1.99-1.95-.04-.69-.03-1.99-.5-2.54-.86-.38-1.8-.71-2.39-1.48-.79-.89-1.18-1.9-1.19-3.06-.34-1.28-.46-2.85.57-3.86.57-.26.67-.91.77-1.46.3-1.73.65-3.47.78-5.23-.02-.1-.14-.12-.22-.1Z"/>
              <path class="cls-11" d="m35.41,100.6c-.73.24.23,2.03.09,2.81.05.31-.35.92.06,1.08,1.07-.08,1.98-1.4,1.87-2.33-.04-.41-.04-1.63-.64-1.64-.32,0-1.08-.03-1.38.07Z"/>
              <path class="cls-11" d="m10.76,10.94c-.88,1.09-1.07,2.55-1.37,3.88-.37,2.21-.29,4.5.06,6.71.18.77.31,2.2.65,2.91-.77,1.19-2.08,2.23-3.39,3.87-1.08,1.54-2.35,3.56-2.83,5.41-.1.4.46.58.73.39.34-.13.59-.45.89-.4-1.24,1.67-2.34,3.03-3.07,4.98-.15.26-.02,1.21.27.99.92-.46,1.74-.95,2.61-1.5.48-.21-.34.58-.43.74-1.62,2.34-2.38,4.58-3.07,7.34-.12.25.26.66.62.5.84-.45,1.87-.39,2.55.26,2.16,1.85,4.08,4.03,6.29,5.83,3.73,3.1,8.18,5.83,13.01,6.75,4.01.73,8.3-.46,11.69-2.63,3.69-2.24,6.6-5.54,9.48-8.7,1.03-1.11,2.41-2.08,3.98-1.77.47.03,1.06,1.02,1.52.87.17-.5-.28-2.15-.35-2.66-.65-2.54-1.52-4.3-2.76-6.04,1.13.43,1.41.82,2.4,1.49.44-.04.22-1.21.21-1.47-.5-1.89-1.37-3.55-2.71-5.02-.1-.12-.53-.34-.15-.31.4,0,.97.7,1.35.66.17-.37-.26-1.35-.6-2.02-1.36-2.77-3.17-4.76-5.38-6.91-.62-.64-1.1-1.05-1.76-1.64.27-.22.97-.11,1.3-.46.27-.32.67-2.58.76-3.01.44-2.94.16-5.39-.66-8.26-.02-.29-.37-.68-.59-.32-1.37,2.26-2.98,3.85-4.83,5.74-.74.64-1.1,1.17-1.81,1.57.28-.22.15-.49-.5-.73-1.99-1.29-4.1-1.6-6.39-1.11-.53.08-1.37.53-1.87.57-2.31-1.09-5.05-1.02-7.42-.23-.69.31-1.41.35-1.89.96-.11.22-.78.24-.96.17-1.54-1.06-2.46-2.37-3.46-3.91-.72-1.12-1.31-2.34-1.95-3.49-.04-.06-.11,0-.16,0Zm15.77,21.87c1.1.04,2.29.35,3.14,1.13.75.81.12,1.68-.52,2.38-.63.73-1.33,1.18-2.28,1.39-.21.39-.38,1.25-.18,1.67,1.23,2.06,4.62,3.2,6.68,1.88,1.4-.79,2.31-2.89,1.85-4.47-.1-.59-.52-.89-.66-1.31,1.18.64,1.02,2.13.8,3.33-.14,1.16-1.16,1.66-1.6,2.69-1.4,2.8-2.71,5.54-3.67,8.52.04,2.11.36,4.46-.87,6.26-1.15,1.69-3.83,1.95-5.16.38-1.55-1.75-1.69-4.39-1.65-6.63-.17-1.44-.86-2.72-1.36-4.06-.77-1.73-1.37-3.36-2.45-4.92-.71-.7-1.56-1.48-1.56-2.53-.04-1.22.25-2.66,1.23-3.49.27-.2.47-.14.17.16-.86,1.37-1.47,3.33-.42,4.77.97,1.3,2.68,1.82,4.26,1.66,1.55-.06,3.29-.92,4.01-2.31.14-.43.33-1.32-.08-1.66-1.13-.3-2.2-.91-2.82-1.91-.48-.74-.53-1.74.41-2.14.87-.44,1.76-.81,2.72-.82Z"/>
              <path class="cls-11" d="m27.34,5.34c-.23.18-.92,1.57-.97,1.21-.13-1.13.63-2.09.62-3.2-.24-.36-.82.08-1.05.23-2.12,2.03-3.99,4.19-4.51,7.11-.08.32-.05,1.35-.05,1.6-.69-.19-.64-1.07-1.05-1.58-.14-.34-.7-.59-.87-.19-.7,1.71-1.06,3.49-.78,5.3.03.37.26,1.74.71,1.46,2.17-.5,5.09-.73,7.19.21.92-.59,2.03-.69,3.03-.71,1.56-.15,3.16.33,4.62.84.18-.69.32-1.12.46-1.51.18-.42.04-.96.05-1.48.86-1.5,1.29-2.29,1.75-3.98,0-.47-.72-.26-.99-.2-.49.09-.79.42-1.14.68-.19-.49.44-.99.56-1.47.82-2.01,1.98-3.57,2.73-5.61.08-.52-.7-.6-1-.51-1.05.23-1.98.55-2.81,1.23.13-1.04.57-1.63.91-2.6-1.62-1.05-4.83.25-7.38,3.17Z"/>
              <path class="cls-12" d="m20.86,16.74c-.71-1.75-.49-3.6-.05-3.6s.76.82,1.36,1.31c.22-3.22,2.99-8.06,3.27-6.93.16.65.11,1.96.44,2.51,1.22-3.34,5.95-6.06,6.33-4.8.38,1.26-.38,2.35-.33,3,.98-.82,2.24-1.33,1.86-.27-.49,1.36-.98,3.44-.87,4.15,0,1.42.93.27,1.04.87.11.6-.71,2.46-.87,2.78-.16.33.76.93.05,1.26-.7.32-1.8-.65-3.17-.33-1.36.33-3.11,1.04-3.49.82-.38-.22-3.38-1.31-5.57-.76Z"/>
              <path class="cls-12" d="m2.36,39.61c.44-2.13,2.67-5.51,2.67-5.51,0,0-1.15.71-1.15-.27s1.04-3.22,1.64-4.15c.6-.93,4.31-5.02,4.58-5.29.27-.27,2.57-2.18,2.57-2.18,0,0-1.2.22-.76-.27.44-.49,1.36-.76,1.36-.76,0,0-1.09-.38-.6-.65.49-.27,2.13-.16,2.13-.16,0,0-.55-1.58-1.15-2.24-.6-.65-1.69-2.78-2.02-3.71-.33-.93-.87-3.11-.71-3.55.16-.44.71.98,1.26,1.91.55.93,1.86,3.22,2.73,4.15.87.93,2.02,1.75,2.02,1.75,0,0,1.04-1.04,1.96-1.31.93-.27,2.29-.93,3.33-.76,1.04.16,2.78.22,3.33.49.55.27,1.04.38,1.04.38,0,0,2.18-.71,3.55-.71s3.93.71,4.2.87c.27.16,1.2.93,1.2.93,0,0,.98-.6,1.96-1.64.98-1.04,2.57-2.89,3.11-3.71.55-.82,1.36-2.29,1.53-2.46.16-.16-.11,1.96-.44,2.67-.33.71-.98,2.13-1.86,3.17-.87,1.04-1.8,2.07-1.64,2.67.16.6.93.93,1.15.98.22.05,1.47.22,1.42.65-.05.44-.6.6-.6.6,0,0,1.47.38,1.86.76.38.38.52.51.27.87-.25.36-.82.27-.82.27,0,0,2.18,1.91,3.22,3.11s2.67,3.6,3.22,4.53c.55.93,1.47,2.4,1.2,2.84-.27.44-.87,0-.87,0,0,0,.98,1.42,1.42,2.46.44,1.04,1.26,3.27.98,3.71-.27.44-3.27-5.13-6.39-7.31-3.11-2.18-6.38-2.23-6.6-2.78-1.13-2.79-4.12-10.37-6.77-9.93-3.05.51-4.04,9.61-4.2,10.21-.16.6-1.75-10.28-4.42-10.21-2.36.07-4.11,2.94-5.35,5.24-1.09,2.02-1.88,4.44-2.13,4.75-.52.66-3.98.27-6.93,3.06-3.76,3.55-4.37,5.68-4.58,6.17-.22.49-.98.93-.93.38Z"/>
              <path class="cls-12" d="m41.42,52.59c-1.48,5.34-5.29,7.79-6.72,9.41-1.75,1.97,6.17-.78,7.51-2.16,1.35-1.38-.54,5.99-1.33,7.44-.8,1.45,1.72-1.66,1.72-1.66l.16,1.28s1.87-3.07,2.49-4.24c.62-1.18,1.42-3.7,1.49-3.35.07.35.12,1.34.12,1.34,0,0,1.09-2.04,1.23-3.38.15-1.34.38-3.48.27-5.06-.11-1.58-.39-5.56-.68-5.49-.3.07-1.25.49-1.94,1.29-.7.8-3.63,4.28-4.32,4.6Z"/>
              <path class="cls-12" d="m11.85,53c1.48,5.34,5.18,7.39,6.61,9,1.75,1.97-6.17-.78-7.51-2.16-1.35-1.38-.12,3.69.68,5.15.8,1.45-.96.04-.96.04l-.81-1.04s-1.02-.61-1.64-1.79c-.62-1.18-1.1-4.12-1.18-3.76-.07.35-.5,2.37-.5,2.37,0,0-1.15-2.28-1.3-3.63-.15-1.34-.48-3.79-.36-5.38.11-1.58.39-4.5.64-4.32.68.48,1.12.92,1.82,1.72.7.8,3.82,3.48,4.51,3.8Z"/>
              <path class="cls-12" d="m47.09,66.26c-3.71,4.16-4.48,4.82-4.07,6.75.41,1.93,1.99,4.27,2.12,5.95.14,1.67.88-7.42.88-7.42,0,0,.65.13.77-.66.11-.79.31-4.61.31-4.61Z"/>
              <path class="cls-12" d="m5.14,65.58c1.62-1.73,2.9-2.39,2.81-1.09-.09,1.29-1.09,3.27-.88,5.44.21,2.17,1.49,3.67,2.1,4.22.6.55.1,2.23.1,2.23,0,0-2.31-.98-3.07-2.32-.77-1.34-1.14-2.88-1.16-3.74-.02-.86-.05-3.46.1-4.73Z"/>
              <path class="cls-2" d="m11.43,23.05c-1.27-3.47-.96-6.99-.89-8.07.08-1.08.62-1.89.93-1.27.31.62.62,1.74.96,2.32.35.58,2.32,3.71,2.32,4.05s-.04.5-.42.39c-.39-.12-1.85-.12-1.74.12.12.23,1.08.69.85.69s-1.66.19-1.54.46c.12.27.77.54.77.54l-1.24.77Z"/>
              <path class="cls-2" d="m38.26,19.5c.15-1.08,1-1.93,1.54-2.89s1.81-2.62,1.97-3.36c.15-.73.39-.19.54,1.04.15,1.24,0,3.67-.08,4.36-.08.69-.27,2.93-.54,3.24-.27.31-1.58-.46-1.43-.5.15-.04.66-.23.5-.5-.15-.27-.93-.62-1.16-.66-.23-.04-1.35-.27-1.35-.73Z"/>
              <path class="cls-2" d="m6.4,60.24c-.49,3.38-.27,6.11,0,6.71.27.6.71.27.82.76.11.49.22,2.57.76,3.71.55,1.15.76,1.42,1.2,1.64.44.22.05,3.11.05,3.11,0,0-2.13-.55-2.67-1.47-.55-.93-1.36-2.51-1.47-3.49-.11-.98-.27-4.2-.27-4.48s.16-2.07.16-2.07c0,0-.65.6-.76-.05-.11-.65-.16-1.58,0-2.24.16-.65.55-2.57.55-2.57,0,0-.16-.11-.05-1.2.11-1.09.58-2.34.53-2.12-.05.22.73,3.37,1.16,3.76Z"/>
              <path class="cls-2" d="m18.73,70.66c.71,1.2,1.8,2.29,1.8,1.64s-.05-1.42,0-1.96c.05-.55,2.57,2.07,3.55,3.17.98,1.09,2.24,1.86,3.88,1.36,1.64-.49,6-5.4,6.33-5.89.33-.49-.38,1.47-.22,1.86.16.38.49.22.6-.22.11-.44.27,2.13.22,3.27-.05,1.15-.87,10.52-.87,10.52,0,0-1.86,1.6-2.62,1.71-.76.11-1.15.6-1.09.16.05-.44.16-1.04,0-.82-.16.22-2.24,1.09-3.71,1.09s-3-.38-3.33-.65c-.33-.27-.82-.49-.82-.49,0,0-.87.76-1.64,0-.76-.76-1.64-2.07-1.64-2.07l-.55-1.2s.27-2.67.33-3.77c.05-1.09-.22-7.7-.22-7.7Z"/>
              <path class="cls-2" d="m19.47,84.64c-.26.14-.16.53-.28.76-.29,1.02-1.25,1.92-2.36,1.84-.44-.11-.46.31-.25.58.59,1.45,1.04,2.97,1.18,4.54.08,1.28-.04,2.6.11,3.88.16.74.7,1.55,1.53,1.55.3-.15-.03-.47-.06-.69-.3-.97-.26-2.19.49-2.95-.27,1-.45,2.15.05,3.11.33.55,1.03.95,1.68.78.28-.24-.09-.57-.14-.84-.07-.87-.08-1.71.22-2.53.09-.24.23-.46.43-.62-.16,1-.43,2.04-.22,3.05.07.42.49.67.89.6.79-.04,1.21-.84,1.48-1.48.82-2.1.91-4.4.87-6.63-.03-.91-.04-1.85-.26-2.74-.32-.27-.78-.26-1.14-.48-.38-.13-.68-.42-1.05-.55-.41.04-.84.21-1.26.05-.71-.15-1.21-.7-1.74-1.16-.05-.04-.12-.08-.19-.06Z"/>
              <path class="cls-2" d="m33.3,85.24c-.69.49-1.43.92-2.21,1.24-.36.46-.48,1.07-.69,1.61-.94,3.01-1.38,6.16-1.43,9.31.03,1.73.04,3.52.68,5.15.37.85.96,1.68,1.82,2.09.46.16,1.09.18,1.38-.28.24-.38.11-.88.08-1.3-.09-.63-.31-1.24-.62-1.78.68.18.92.96,1.04,1.57.1.58.15,1.18-.07,1.74.03.33.49.24.72.2.87-.25,1.41-1.19,1.31-2.07.01-.67-.06-1.37-.39-1.96-.34-.32-.85-.33-1.24-.59-1.43-.72-2.24-2.32-2.27-3.87-.03-.72-.35-1.4-.28-2.14.02-.84.36-1.75,1.08-2.24.43-.18.37-.75.5-1.12.36-1.8.61-3.63.83-5.45,0-.11-.14-.15-.23-.1Z"/>
              <path class="cls-15" d="m35.69,100.81c-.33.09-.06.5-.05.71.22.85.14,1.71-.12,2.54.07.33.51.17.73.09.76-.38.95-1.31.9-2.08-.02-.4-.02-.84-.24-1.19-.4-.05-.81-.07-1.22-.08Z"/>
              <path class="cls-2" d="m9.54,83.46c.63,1.94,2.52,1.45,2.89,1.23.3-.18.62.68,1.99.63,1.09-.04,1.83-.65,1.83-1.04,1.04.98,2.16.93,2.7.52.51-.38.16.93-.49,1.53-.65.6-1.31.82-1.75.65-.44-.16-1.04-.27-1.04-.27,0,0-1.04.55-1.64.38-.6-.16-1.2-.76-1.2-.76,0,0-.98,1.15-2.02.38-1.04-.76-1.61-1.83-1.28-3.25Z"/>
              <path class="cls-2" d="m31.53,94.87c.03-2.84,2.51-1.64,2.89-1.42.23-.37.74-1.06,1.69-1.06s1.45.16,1.66.85c.41-.03,1.01-.16,1.77.19,1.51.7,1.53,2.35,1.53,2.84s.02,2.19-1.33,3.26c-.54.43-.67.72-1.92.94-2.29.08-3.38,0-4.37-.74-.98-.74-1.31-.79-1.61-2.1-.3-1.31-.33-2.76-.33-2.76Z"/>
              <path class="cls-2" d="m41.16,67.28c-1.04,1.96-1.36,2.67-1.58,2.95s3.17-2.78,3.98-3c.82-.22,1.69.82,2.07,1.75.38.93.76,2.29.76,2.29,0,0,.55-1.04.65-1.96.11-.93.22-4.2.22-4.2,0,0,.38.65.44-.16.05-.82.05-1.91,0-2.4s-.76-2.67-.76-2.67l-.27.93-.33-1.47s-.65,2.57-1.58,3.98c-.93,1.42-1.96,3.33-2.13,3.33s-.22-1.2-.22-1.2c0,0-.76,1.58-1.26,1.86Z"/>
              <path class="cls-16" d="m11.97,53.42c.54,2.38,2.04,4.35,3.27,5.6,2.07,2.07,6.01,4.82,11.79,4.82s10.83-5,11.87-6.1c.94-.95,2.41-3.38,2.45-4.98l-1.49,1.31s0,1.2-1.36,2.67c-1.36,1.47-3.71,3.27-6.66,4.2-2.95.93-6.06.87-7.31.55-1.26-.33-4.75-1.2-6.39-2.18-1.64-.98-3.49-2.57-3.93-3.27-.44-.71-.76-1.53-.76-1.53l-1.47-1.09Z"/>
              <path class="cls-2" d="m22.61,50.77c.6-1.91,1.96-1.99,2.29-1.91.33.08,1.58,1.01,1.58,1.01,0,0,.96-1.23,1.66-1.01.71.22,1.8,1.53,1.94,1.94.14.41-.25-1.5-.44-1.99-.19-.49-.63-1.15-1.2-1.36-.57-.22-.82.05-1.34.16-.52.11-.74.3-.74.3,0,0-.74-.98-1.86-.57-1.12.41-1.61,1.47-1.69,1.86-.08.38-.22,1.58-.22,1.58Z"/>
              <path class="cls-2" d="m2.9,46.43c1.69-1.69,3.88-1.69,5.68-.49s4.53,4.09,6.6,5.68c2.07,1.58,5.02,3.33,6.22,3.71,1.2.38,2.07.49,2.07.49,0,0,1.75,2.18,3.33,1.91,1.58-.27,2.73-2.24,2.73-2.24,0,0,1.42.38,3.82-.76,2.4-1.15,7.59-5.13,9.55-6.77,1.96-1.64,3.17-3.22,4.37-3.27,1.2-.05,2.35.55,2.84,1.36.49.82.65,1.36.65,1.36,0,0-.33-1.2-1.8-1.04-1.47.16-1.91.33-2.62.98-.71.65-2.35,2.73-3.33,3.71s-2.95,2.95-4.48,4.09c-1.53,1.15-4.75,3.44-8.19,4.26-3.44.82-6.5.33-8.19-.22-1.69-.55-7.2-3.49-8.62-4.64-1.42-1.15-4.09-3.17-5.24-4.42-1.15-1.26-3.27-3.93-5.4-3.71Z"/>
              <path class="cls-13" d="m39.04,54.9c-.74.42-1.65,1.18-2.38,1.62-2.7,1.8-5.88,3.07-9.12,3.23-4.1.23-7.9-1.33-11.36-3.45-.52-.29-2.02-1.41-2.57-1.62-.33.07.71,1.5.84,1.64,1.79,2.17,4.56,3.79,7.22,4.62,1.79.54,3.61.52,5.49.51,3.44-.17,6.95-.89,9.64-3.08.83-.72,2.39-2.88,2.96-3.82.05-.12-.59.34-.72.36Z"/>
              <path class="cls-10" d="m36.25,95.15c-.65,0-1.63.43-1.39,1.23.2.96,1.42.96,2.17.73.51-.09,1.06-.55.81-1.11-.19-.69-.96-.88-1.59-.85Z"/>
              <path class="cls-2" d="m41.26,52.87c1.39-1.16,2.66-2.8,3.32-3.69.66-.9,1.49-1.65,2.25-2.15.76-.5,1.03-.05,1.03-.05l-.03.44s-1.61,1.79-2.88,3.45c-.72.94-3.18,3.77-4.44,4.67.26-.61.75-1.75.76-2.67Z"/>
              <path class="cls-2" d="m5.27,48.27c1.3,2.77,7.26,7.54,7.62,7.75-.32-.68-.8-1.86-.93-2.51-.78-.76-3.89-3.51-4.68-4.42-.79-.91-1.83-1.75-1.83-1.75,0,0-.28.57-.17.94Z"/>
              <path class="cls-1" d="m47.09,66.26c-.52.58-1.37,1.47-1.81,2.02.64,1.27.95,2.46,1.05,2.8.46-.15.32.65.45-.21.11-.79.31-4.61.31-4.61Z"/>
              <path class="cls-1" d="m5.14,65.58c.1-.3.61-.69.97-.95.13.36-.15,2.49.9,2.78.24.07.22.24.21.29-.18.91-.2,1.68-.14,2.22.21,2.17,1.49,3.67,2.1,4.22.6.55.1,2.23.1,2.23,0,0-2.31-.98-3.07-2.32-.77-1.34-1.14-2.88-1.16-3.74-.02-.86-.05-3.46.1-4.73Z"/>
              <path class="cls-3" d="m17.02,39.25c.36,1.26,1.38,2.16,2.59,2.64,2.42.96,5.79.29,7.15-2.56l.15-.32-.63-.3-.15.31c-1.19,2.48-4.15,3.04-6.26,2.21-1.06-.42-1.87-1.17-2.17-2.19-.3-1.02-.11-2.35,1.01-3.99l.2-.29c-1.38-.15-2.36,2.81-1.88,4.48Z"/>
              <path class="cls-3" d="m34.11,35.06l.19.3c.9,1.43.97,2.69.57,3.71-.4,1.02-1.29,1.81-2.4,2.22-1.09.41-2.34.27-3.4-.2-1.04-.47-1.87-1.27-2.18-2.12,0-.06,0-.18,0-.37,0-.24,0-.48,0-.61l-.02-.35-.7.05.02.35c0,.05,0,.33,0,.57,0,.24,0,.45,0,.45v.06l.02.06c.39,1.1,1.38,2.02,2.57,2.55,1.2.54,2.63.7,3.93.22,1.27-.47,2.33-1.39,2.81-2.62.63-1.63-.02-4.3-1.41-4.26Z"/>
              <path class="cls-3" d="m18.84,40.96l-.59-.04.19.3c1.07,1.7,3.45,7.04,3.81,9.1l.06.34.47.04.16-.51c-.41-2.35-2.74-7.5-3.91-9.35l-.19.11Z"/>
              <path class="cls-3" d="m34.17,40.5l-.24-.04c-.08.16-.87,1.67-1.75,3.6-.88,1.93-1.87,4.3-2.4,6.31l.15.47.43.04.09-.34c.51-1.93,1.49-4.29,2.36-6.2.87-1.91,1.63-3.36,1.74-3.58l.16-.31-.54.04Z"/>
              <path class="cls-3" d="m25.11,46.97c-.86-.04-1.91.44-2.54,1.91-.22.52-.34,1.3-.37,2.22-.03.92.06,1.97.3,2.98.24,1.01.65,1.98,1.29,2.71.64.73,1.55,1.22,2.69,1.22s2-.43,2.61-1.09c.61-.66.96-1.53,1.16-2.43.41-1.8.25-3.74.13-4.56-.13-.86-.51-1.81-1.22-2.41-.35-.3-.8-.5-1.3-.51-.43,0-.94.22-1.42.51-.08-.07-.26-.22-.37-.29-.28-.16-.52-.25-.95-.27Zm-.03.7c.3.02.58.12.77.23.1.05.17.11.2.15.19.19-.1,4.45.38,4.45.46,0,.21-3.72.33-4.38.42-.26.79-.4,1.09-.39.33,0,.61.13.86.34.51.43.87,1.25.98,1.97.11.75.26,2.66-.12,4.31-.19.82-.51,1.58-1,2.11-.49.53-1.13.86-2.09.86s-1.62-.37-2.16-.98-.91-1.48-1.14-2.41c-.23-.93-.31-1.93-.28-2.8.02-.86.16-1.6.31-1.96.55-1.29,1.26-1.52,1.86-1.49Z"/>
              <path class="cls-3" d="m24.87,42.85c-.87-.03-1.69.69-2.31,1.68-.63.99-1.05,2.3-.9,3.65l.28.29.45-.02-.04-.35c-.12-1.16.24-2.33.8-3.2.55-.87,1.3-1.37,1.7-1.35.53.02.64.19.72.43.08.24.04.59,0,.75-.06.23-.19.72-.15,1.23.02.25.08.52.27.74.19.22.51.35.85.33.33-.02.61-.13.8-.34.18-.21.24-.46.24-.7,0-.47-.15-.93-.21-1.24-.09-.45-.08-.76-.03-.94.05-.19.11-.25.2-.29.18-.09.62-.02,1.05.22.64.36,2.13,1.33,1.87,4.37l-.03.35h.58s.15-.29.15-.29c.28-3.29-1.48-4.62-2.22-5.04-.54-.3-1.15-.5-1.7-.23-.27.13-.48.4-.57.74-.09.34-.08.75.02,1.26.08.38.2.81.2,1.09,0,.14-.03.21-.07.25-.03.04-.1.09-.31.1-.19.01-.24-.03-.28-.08-.05-.06-.09-.18-.1-.34-.03-.33.08-.79.13-.99.07-.26.15-.7,0-1.16-.15-.46-.62-.88-1.36-.91Z"/>
              <path class="cls-3" d="m39.82,53.79l-.19.15c-1.15,2.78-3.43,4.62-5.9,5.78-2.47,1.15-5.12,1.6-6.92,1.59-1.61-.01-4.27-.4-6.85-1.49s-5.08-2.86-6.48-5.63l-.08-.08-.7.08.16.31c1.49,2.96,4.15,4.83,6.84,5.96,2.69,1.13,5.4,1.53,7.12,1.55,1.92.01,4.64-.45,7.22-1.66,2.58-1.21,5.01-3.17,6.25-6.14l.13-.32-.59-.1Z"/>
              <path class="cls-3" d="m2.41,43.17c-.36.91-.62,1.74-.76,2.38-.07.32-.11.59-.12.82,0,.12,0,.22.03.33.03.11.08.24.21.33.25.18.57.13.77.05.21-.08.39-.18.58-.25.39-.14.8-.21,1.57.35.34.25,1.3,1.23,2.61,2.49,1.31,1.26,3.01,2.84,4.99,4.38,3.96,3.08,9.03,6.05,14.37,6.09,5.14.04,9.56-2.6,12.9-5.43,1.67-1.41,3.08-2.87,4.18-4.08,1.1-1.21,1.91-2.18,2.3-2.55.91-.83,1.84-1.24,2.63-1.29.78-.05,1.4.22,1.79.77.08.11.14.2.3.27.08.03.21.05.31,0,.11-.04.18-.12.22-.18.08-.13.09-.23.1-.35.01-.12.01-.25,0-.4-.03-.6-.22-1.51-.5-2.59-.57-2.18-2.44-6.57-4.2-6.46l.24.25c1.59,1.66,2.7,4.33,3.28,6.4.28,1.01.43,1.86.46,2.38-.54-.53-1.25-.84-2.07-.79-.98.07-2.05.55-3.05,1.47-.49.45-1.26,1.39-2.35,2.59-1.09,1.2-2.48,2.64-4.11,4.02-3.28,2.77-7.55,5.3-12.44,5.26-5.08-.04-10.04-2.9-13.94-5.94-1.95-1.52-3.63-3.07-4.93-4.33-1.3-1.26-2.18-2.19-2.69-2.55-.92-.67-1.7-.63-2.22-.44-.26.09-.47.21-.59.26-.07.03-.05.01-.06.02,0-.02,0-.03,0-.06,0-.15.04-.39.1-.68.13-.58.38-1.38.73-2.27.69-1.78,1.77-3.92,2.97-5.5l.21-.28c-1.22-.88-3.48,4.63-3.84,5.52Z"/>
              <path class="cls-3" d="m2.94,36.9c-.57,1.1-.91,1.98-1,2.53-.03.17-.02.39.14.54.16.16.36.16.51.14.29-.04.57-.19.9-.36.65-.35,1.44-.85,1.86-1.01l.08-.3v-.48s-.33.13-.33.13c-.58.22-1.34.72-1.94,1.05-.2.11-.3.14-.43.18.1-.43.34-1.14.84-2.1.55-1.06,1.33-2.32,2.32-3.53l.22-.27c-1.04-.77-2.71,2.62-3.16,3.48Z"/>
              <path class="cls-3" d="m47.18,33.38l.28.21c.84.64,1.63,2.18,2.14,3.63.26.72.45,1.42.57,1.98.06.26.1.49.13.67-.11-.07-.19-.12-.34-.24-.5-.39-1.14-.93-1.78-1.16l-.46-.17.06.56.16.26c.43.16,1.07.66,1.59,1.06.26.2.48.37.71.48.11.05.24.12.43.07.1-.02.2-.09.26-.18.06-.09.08-.17.09-.25.02-.16,0-.3-.03-.51-.03-.21-.08-.46-.14-.75-.13-.58-.33-1.3-.6-2.06-.44-1.23-1.8-4.49-3.08-3.61Z"/>
              <path class="cls-3" d="m11.59,13.14c-.86.44.49,3.12.85,3.77.67,1.23,1.5,2.48,1.89,3.11.07.12.09.18.11.23-.01-.01-.08.02-.28.02-.24,0-.56-.1-.85-.11-.29-.02-.64-.06-.93.15-.11.08-.21.17-.22.35-.02.18.15.3.24.38.05.04.36.2.41.23-.35.11-1.07.16-1.28.53-.03.05-.06.12-.07.21,0,.09.03.22.09.3.13.16.26.16.35.17,0,0,.01,0,.02,0-.15.09-.27.16-.5.33-.72.55-1.86,1.59-3.76,3.8-1.91,2.22-3.07,4.16-3.66,5.53-.3.69-.46,1.23-.5,1.63-.02.2-.03.38.07.56.05.09.14.21.26.24.29.08.61-.05.85-.12.14-.04.31-.09.7-.28l.14-.31-.1-.43c-.22.18-1.11.65-1.19.37-.08-.28.27-1.06.41-1.38.56-1.29,1.68-3.18,3.55-5.35,1.88-2.19,2.98-3.19,3.65-3.7.33-.25.58-.43.75-.54.43-.29.71-.48.62-.68-.13-.25-.46-.25-.74-.3.25-.06.92-.16,1.1-.22.25-.07.32-.24.23-.41-.13-.23-.38-.33-.62-.43.17.01.69.08.86.09.29,0,.62.08.88-.2.13-.14.18-.35.15-.54-.03-.18-.11-.35-.23-.54-.39-.62-1.11-1.81-1.78-3.02-.66-1.21-1.26-2.47-1.39-3.09l-.07-.34Z"/>
              <path class="cls-3" d="m10.69,10.31c-.31.11-.5.36-.7.69-.41.66-.79,1.73-1.07,3.09-.56,2.73-.66,6.62.76,10.41l.12.33.65-.25-.12-.33c-1.36-3.63-1.26-7.41-.73-10.02.27-1.31.66-2.33.98-2.87.14-.23.25-.31.29-.34,0,0,0,0,0,0,.7,1.6,4.42,8.48,6.38,7.99l-.25-.25c-2.35-2.35-4.67-6.12-5.5-8.02-.07-.16-.16-.3-.31-.39-.15-.1-.36-.11-.52-.05Z"/>
              <path class="cls-3" d="m30.83,16.47c-1.65-.1-3.19.18-4.24.73-1.27-.68-3.07-.91-4.91-.72-1.92.2-3.88.83-5.24,1.96l-.27.22.39.05.32.27c1.2-1,3.05-1.62,4.86-1.81,1.82-.19,3.6.07,4.67.69l.18.1.18-.1c.86-.49,2.41-.8,4.02-.7,1.61.1,3.27.59,4.42,1.59l.27.23.46-.53-.26-.23c-1.31-1.14-3.11-1.65-4.83-1.76Z"/>
              <path class="cls-3" d="m42.33,10.5c-.2-.04-.42.06-.55.19-.14.13-.23.3-.33.51-.84,1.9-4.15,5.8-6.93,7.83l-.28.21c1.87.98,7.35-6.69,7.85-7.75.06-.14.11-.21.15-.25,0,0,0,0,0,0,.05.06.12.18.18.33.27.62.52,1.86.65,3.32.25,2.92,0,6.78-1.17,8.82l-.17.3.61.35.18-.3c1.34-2.32,1.52-6.23,1.26-9.24-.13-1.5-.37-2.77-.7-3.54-.08-.19-.17-.35-.28-.49-.11-.14-.25-.26-.46-.3Z"/>
              <path class="cls-3" d="m41.87,12.52l-.08.34c-.23.63-1.46,2.24-2.27,3.51-.41.63-.81,1.22-1.11,1.69-.15.23-.28.44-.38.61-.1.17-.17.27-.21.46-.07.34.08.68.3.88.22.21.49.33.77.44.56.21,1.2.35,1.36.43.19.1.19.17.19.16,0,0,0,.06-.19.12l-.85.25.79.39c.63.32,1.38.7,1.7,1.01-.15.05-.35.11-.59.22l-.51.23.43.36c.7.59,2.32,2.05,3.88,3.99,1.12,1.39,2.03,2.83,2.66,4.01.32.59.57,1.1.74,1.51.1.23.22.44.27.59-.15-.1-.65-.37-.9-.41l-.13.06-.07.22.22.34c.08.04.41.28.7.44.15.08.28.18.55.12.13-.03.28-.17.32-.3.04-.13.03-.24.02-.35-.04-.24-.15-.54-.34-.98-.19-.43-.44-.97-.77-1.57-.65-1.21-1.58-2.68-2.73-4.11-1.44-1.79-2.77-2.97-3.58-3.68.1-.03.17-.05.27-.1.13-.07.3-.16.36-.39.07-.22-.04-.44-.18-.59-.4-.46-1.08-.74-1.67-1.02.09-.11.27-.15.28-.3.03-.36-.22-.67-.57-.85-.39-.19-.96-.28-1.43-.46-.24-.09-.43-.19-.53-.29-.1-.09-.12-.13-.09-.24,0,.04.04-.09.13-.24.09-.15.21-.35.36-.58.3-.46.7-1.05,1.11-1.69.56-.91,2.08-3.04,1.76-4.23Z"/>
              <path class="cls-3" d="m19.96,10.03c-.26-.06-.54,0-.71.15-.17.16-.28.36-.39.6-.21.49-.38,1.16-.49,1.92-.22,1.52-.21,3.4.36,4.76l.13.32.65-.27-.13-.32c-.47-1.15-.52-2.96-.31-4.39.1-.72.27-1.35.44-1.74.08-.19.14-.4.32-.37.34.06.49.48.69.85.49.85.84,1.3,1.3,1.05l-.18-.3c-.13-.22-.31-.67-.55-1.12-.25-.45-.63-1.04-1.13-1.15Z"/>
              <path class="cls-3" d="m34.52,1.6c-1.26-.25-2.77.16-4.25.98-1.12.62-2.18,1.55-3.14,2.61.04-.14.05-.21.08-.34.08-.32.16-.64.17-.95.01-.31-.04-.63-.26-.88-.11-.13-.29-.17-.42-.16-.13,0-.25.04-.36.1-.23.1-.48.27-.75.5-.55.46-1.21,1.16-1.87,2.02-1.32,1.74-2.62,4.14-2.82,6.59l.15.2.52.2.03-.35c.18-2.24,1.42-4.56,2.68-6.22.63-.83,1.27-1.5,1.76-1.91.25-.2.46-.34.59-.4,0,0,0,0,0,0,.03.07.07.13.06.28,0,.21-.07.49-.15.79-.16.59-.41,1.21-.41,1.75v1.08l.63-.87c1.06-1.46,2.45-2.66,3.84-3.43s2.21-.89,3.01-1c.23-.03.74-.04.82.11.1.19-.16.44-.28.68-.26.5-.68,1.55-.86,2.65l.72-.57c.48-.39,1.32-.77,2.05-.95.36-.09.7-.14.92-.13.18,0,.25.08.21.24-.05.18-.15.44-.28.73-.26.59-.66,1.34-1.06,2.11-.41.77-.83,1.55-1.15,2.22-.16.33-.3.64-.41.9-.1.26-.17.48-.18.7l-.02.35.45-.13.26-.18c0-.05.05-.25.14-.48.09-.24.22-.53.38-.85.32-.65.73-1.43,1.14-2.2.41-.77.8-1.53,1.08-2.15.14-.31.25-.58.32-.82.07-.24.15-.43.01-.7-.08-.17-.24-.28-.39-.34-.15-.06-.31-.08-.48-.09-.34-.01-.72.05-1.13.15-.5.13-.95.43-1.42.67.15-.34.27-.68.42-.99.14-.27.26-.52.26-.82,0-.15-.05-.33-.18-.46-.12-.13-.28-.19-.45-.23Z"/>
              <path class="cls-3" d="m34.57,14.68h-.2c-.06.59-.05,1.29-.43,2.74l-.09.34.68.18.09-.34c.39-1.5.4-2.32.45-2.84l.03-.35-.53.27Z"/>
              <path class="cls-3" d="m36.17,10.09c-.27-.02-.57.03-.88.12-.31.09-.63.22-.91.39-.7.56-.55,1.08-.22,1.27l.17-.31c.04-.08.2-.23.41-.36.22-.13.49-.24.75-.32.25-.07.48-.1.61-.09-.01.1-.04.25-.13.51-.11.31-.27.71-.49,1.15-.42.89-1.03,1.98-1.75,3.06l-.2.29c.9.3,2.17-2.18,2.58-3.05.22-.46.39-.87.51-1.22.12-.34.2-.6.2-.85,0-.18-.11-.37-.24-.46-.13-.09-.27-.12-.41-.13Z"/>
              <path class="cls-3" d="m26.52,32.69c-.78,0-1.56.09-2.2.28-.64.19-1.2.47-1.4,1.01-.34.87.04,1.83.75,2.58.64.68,1.52,1.25,2.59,1.5l.12.08.39-.04c.89-.1,1.83-.67,2.53-1.42s1.16-1.73.82-2.65c-.2-.55-.76-.84-1.4-1.04-.64-.2-1.42-.3-2.2-.3Zm0,.7c.72,0,1.45.1,2,.27.55.17.88.43.95.62.21.55-.09,1.29-.68,1.93-.58.63-1.61,1.13-2.24,1.22-1.04-.19-1.78-.73-2.37-1.35-.6-.63-.82-1.31-.61-1.85.07-.17.4-.43.95-.59.55-.16,1.27-.25,2-.25Z"/>
              <path class="cls-3" d="m24.31,34.97c-.33-.03-.67.09-1.03.31l-.3.18.36.6.3-.18c.27-.17.49-.21.61-.21.12,0,.15.03.2.14,0,0,.07.2.11.41.04.21.06.47.05.71l-.02.35.7.03.02-.35c.02-.31-.02-.62-.06-.87-.05-.25-.09-.43-.16-.58-.14-.3-.45-.51-.78-.54Z"/>
              <path class="cls-3" d="m29.28,34.95c-.25-.04-.56-.08-.87.1-.35.2-.44.55-.51.91-.07.36-.09.75-.04,1.1l.05.35.69-.1-.05-.35c-.03-.25-.02-.59.03-.87.06-.27.2-.46.18-.45.02-.01.23-.04.42-.01.19.03.34.07.34.07l.34.1.21-.67-.34-.1s-.2-.06-.45-.1Z"/>
              <path class="cls-3" d="m5.26,47.19l-.14.32c-.75,1.7-.67,4.3-.54,6.92.07,1.31.51,3.08.69,4.13.18,1.04.74,2.06.99,2.59.24.51.66,1.08.66,1.08,0,0-.05-.85-.01-1.21.03-.33.08-.7.16-.95.01.05,0,.07.02.11.4,1.52,1.29,3.46,3.24,4.93l.28.21.49-.37-.35-.4c-1.8-1.35-2.61-3.13-2.99-4.55-.19-.71-.28-1.33-.31-1.75-.04-.48-.14-.94-.43-.92-.41.02-.49,2.03-.54,2.53-.06-.25-.48-1.13-.53-1.43-.18-1.01-.62-2.76-.68-4.04-.13-2.57-.16-5.14.48-6.61l.06-.09-.57-.51Z"/>
              <path class="cls-3" d="m9.95,61.56c-1.04.77.06,3.33.83,3.92l.28.21.42-.56-.28-.21c-.34-.25-1.12-1.14-1.23-3.02l-.02-.35Z"/>
              <path class="cls-3" d="m20.41,73.25l-.37-.03c-.16.43.12,1.52.31,2.14-.62-.62-.88-1.01-1.21-1.76l-.47.08-.08.47c.37,1.12,1.51,2.38,2.32,3.05l.9.75-.34-1.12c-.23-.73-.71-2.03-.81-2.99l-.25-.59Z"/>
              <path class="cls-3" d="m21.2,76.1c.77,1.07,3.02,2.73,3.26,1.63l-.34-.09c-.64-.18-1.62-.99-2.37-1.96-.75-.97-1.27-2.12-1.25-2.76v-.35c-1.31.66.32,3.05.7,3.54Z"/>
              <path class="cls-3" d="m31.98,75.99l-.14.32c-.2.47-.8,1.15-1.54,1.72-.74.57-1.62,1.04-2.36,1.18l-.34.07c.53,1.02,2.54-.26,3.13-.7.98-.73,2.15-2.35,1.25-2.6Z"/>
              <path class="cls-3" d="m34.51,75.11l-.15.31c-.25.52-1.04,1.36-1.73,1.94-.26.21-.46.34-.66.46.28-.56.43-1.14.31-1.51l-.37.13-.25.28c-.16.47-.25.62-.33.79-.08.17-.15.36-.18.71,0,.09,0,.23.1.34.09.11.23.16.33.16.2.01.32-.05.46-.13.29-.15.64-.39,1.02-.7.75-.61,1.57-1.43,1.92-2.17l-.12-.48-.36-.14Z"/>
              <path class="cls-3" d="m34.48,71.3v.35c.03,2.28-.32,6.84-.78,11.06-.23,2.11-.48,4.13-.73,5.75-.24,1.62-.49,2.86-.65,3.26l-.13.33.57-.02.21-.05c.23-.58.44-1.78.69-3.41.25-1.63.5-3.66.73-5.78.28-2.34,1.41-11.05.08-11.48Z"/>
              <path class="cls-3" d="m42.23,64.56l-.09.34c-.3,1.09-1.18,2.2-2.41,3.33l-.26.24c1.16.42,3.09-2.01,3.34-3.38l-.21-.28-.37-.24Z"/>
              <path class="cls-3" d="m46.6,57.09l-.16.86c-.23,1.56-1.36,3.99-2.41,5.87-.44.78-.81,1.37-1.14,1.87.02-.87-.07-1.82-.7-1.78v.35c-.04.88-.01,1.3,0,1.58,0,.28,0,.41-.11.86-.01.05-.02.09-.02.18,0,.04.01.1.06.17.05.07.15.15.24.16.19.03.25-.04.3-.07.05-.03.08-.06.11-.09.13-.13.27-.32.46-.59.37-.53.89-1.35,1.42-2.31.68-1.26,3.28-4.81,1.96-7.08Z"/>
              <path class="cls-3" d="m47.92,46.34l-.68.15.08.34c.67,2.98.73,6.1.47,8.68-.16,1.58-.51,2.28-.83,3.28-.01-.05,0-.15,0-.19l-.11-.33-.38.27-.17.28c.12.37.18,2.75.05,3.19,1.25-1.98,1.95-4.63,2.14-6.44.26-2.64.21-5.82-.49-8.9l-.08-.34Z"/>
              <path class="cls-3" d="m47.29,59.83l-.64.28.14.32c.26.59.41,1.66.46,2.61.02.47.02.92.01,1.28,0,.18-.02.22-.03.35l-.91-.88c-.25.36-.02.97.43,1.4.1.1.18.25.37.4.05.04.11.08.22.1.11.02.25-.02.34-.09.17-.14.18-.26.21-.41.04-.19.06-.46.07-.83.01-.38.01-.84-.01-1.34-.05-.99-.18-2.08-.52-2.85l-.14-.32Z"/>
              <path class="cls-3" d="m47.52,64.81l-.69.1.05.35c.1.66.02,1.9-.11,3.02-.13,1.13-.34,2.2-.42,2.44-.09.26-.16.29-.14.29-.09-.05-.23-.12-.34-.07-.13.06-.16.13-.18.17-.05.08-.05.13-.07.18-.03.11-.05.25-.07.43-.04.35-.08.84-.12,1.37-.08,1.06-.14,2.31-.2,2.95-.05.59-.54,4.27-1.08,7.93-.27,1.83-.54,3.68-.78,5.17-.24,1.49-.44,2.64-.54,2.99-.22.81-.35,1.19-.45,1.54-.11.34-.18.65-.26,1.23-.07.51-.42,1.92-1.27,3.14-.84,1.22-2.14,2.26-4.22,2.24-1.94-.03-3.11-.65-3.8-1.5-.69-.84-.93-1.94-.88-2.94v-.1s-.04-.09-.04-.09c-.27-.47-.37-1.71-.03-2.52.17-.4.42-.69.78-.82.35-.13.85-.12,1.57.22l.23.07.19-.6-.13-.1c-.83-.39-1.55-.46-2.12-.25-.57.21-.95.68-1.18,1.21-.42.99-.36,2.16.01,2.95-.06,1.13.2,2.4,1.03,3.41.83,1.01,2.24,1.72,4.33,1.75,2.33.03,3.87-1.19,4.81-2.54.93-1.35,1.29-2.81,1.38-3.44.08-.56.14-.8.24-1.13.1-.32.24-.73.46-1.56.12-.46.31-1.57.55-3.07.24-1.49.51-3.34.78-5.17.53-3.67,1.02-7.26,1.08-7.98.06-.67.12-1.91.2-2.96.04-.53.08-1.01.12-1.34,0-.06.01-.07.02-.12.07,0,.13.02.2,0,.27-.11.42-.37.55-.74.14-.42.31-1.42.45-2.57.14-1.15.23-2.39.11-3.21l-.05-.35Z"/>
              <path class="cls-3" d="m35.65,90.61c-1.54.35-2.09,2.6-1.04,3.13l-.03-.35c-.12-1.25.5-1.89,1.26-2.1.76-.21,1.62.05,2.01.82l.16.31.63-.31-.16-.31c-.54-1.09-1.64-1.45-2.82-1.18Z"/>
              <path class="cls-3" d="m39.79,91.23c-2.02-.24-2.74,1.93-1.88,2.37l.05-.35c.17-1.09.98-1.45,1.71-1.34.37.06.69.25.9.55.21.31.32.75.18,1.37l-.07.34c.91.23.99-1.38.47-2.11-.33-.48-.84-.78-1.37-.85Z"/>
              <path class="cls-3" d="m36.05,94.55h-.02c-.31.06-.75.14-1.14.41-.39.27-.68.77-.62,1.45.05.5.36.91.77,1.14.41.23.93.32,1.47.26.51-.06.99-.15,1.37-.41.38-.26.62-.72.58-1.27-.03-.58-.39-1.04-.84-1.28-.45-.25-1-.33-1.57-.3Zm.08.7c.43-.02.86.05,1.15.21.3.16.46.37.48.71.02.37-.07.51-.28.65-.21.14-.58.24-1.05.29-.41.05-.79-.03-1.04-.18-.26-.15-.4-.34-.42-.6-.05-.47.1-.65.32-.8.22-.15.55-.23.84-.28Z"/>
              <path class="cls-3" d="m30.69,86.35l-.18-.09c-1.04,2.2-1.74,5.6-2.01,8.84-.26,3.24-.12,6.3.73,7.93.8,1.54,1.77,2.22,2.63,2.3.87.08,1.62-.47,1.68-1.22.11-1.21-.28-3.06-1.48-2.99l.18.3c.39.63.7,1.8.61,2.61-.04.34-.37.66-.92.6-.55-.05-1.35-.51-2.08-1.92-.68-1.32-.91-4.37-.65-7.55.26-3.18.96-6.54,1.94-8.6l.15-.32-.6.11Z"/>
              <path class="cls-3" d="m35.43,100.4l-.66.23.11.33c.6,1.72.28,2.76-.22,3.29-.5.53-1.2.56-1.58.26l-.27-.22-.44.54.27.22c.71.57,1.81.44,2.53-.32.72-.76,1.02-2.12.37-4l-.11-.33Z"/>
              <path class="cls-3" d="m37.22,100.52l-.61-.07.14.32c.37.84.37,1.88.08,2.56-.15.34-.35.58-.6.7-.25.12-.56.15-1-.02l-.03.15-.55.38.33.13c.57.22,1.12.2,1.55-.01.44-.21.74-.6.94-1.05.39-.9.37-2.1-.08-3.12l-.17.03Z"/>
              <path class="cls-3" d="m25.35,86.31l-.69.11.05.34c.38,2.33.36,5.01,0,7.12-.18,1.06-.44,1.97-.77,2.62-.32.65-.69.99-1.03,1.05-.34.06-.55.03-.68-.05-.13-.08-.22-.21-.29-.48-.13-.54-.04-1.55.23-2.87l.07-.34c-.98.19-1.16,2.57-.98,3.38.09.39.29.72.61.92.32.19.72.22,1.17.14.67-.13,1.16-.68,1.53-1.43.37-.74.65-1.71.83-2.81.37-2.2.38-4.93,0-7.34l-.06-.35Z"/>
              <path class="cls-3" d="m16.12,86.46l-.63.3.15.31c.97,2.04,1.71,4.46,1.6,6.6-.04.76-.15,1.99.18,3.04.17.52.46,1.02.95,1.33.49.32,1.16.43,1.99.3l.34-.05-.27-.31-.18-.33c-.72.11-1.18,0-1.51-.2-.32-.21-.53-.53-.67-.95-.27-.84-.19-2.01-.15-2.79.11-2.33-.67-4.83-1.67-6.94l-.15-.32Z"/>
              <path class="cls-3" d="m19.53,97.76c.33.46.81.76,1.34.85.53.1,1.12-.02,1.69-.35l.3-.18c-.2-.04-.48-.17-.65-.43-.46.27-.87.33-1.21.27-.35-.06-.65-.26-.91-.59-.69-.88-.33-2.6-.01-3.5-1.11.46-1.4,2.71-.54,3.92Z"/>
              <path class="cls-3" d="m18.97,82.03l-.39-.22-.15.79c.54,1.48,1.26,2.45,2.03,2.99.77.53,1.63.61,2.28.26l.31-.17-.33-.29-.31-.16c-.41.22-.95.2-1.56-.22-.61-.42-1.27-1.26-1.77-2.65l-.12-.33Z"/>
              <path class="cls-3" d="m21.33,83.49c.44,3.08,3.62,3.53,4.91,3.54.9,0,1.85-.2,2.65-.45.39-.12.73-.25,1.01-.38.02.08-.01.16.04.23.13.16.32.23.49.25.17.02.35,0,.54-.05.77-.19,1.86-.8,3.08-1.84l-.03-.39-.15-.37-.27.23c-1.16.99-2.22,1.55-2.79,1.69-.12.03-.19.03-.25.03.25-.53.38-.91.47-1.31-.41.37-1.12.77-1.38.89s-.6.25-.97.36c-.75.23-1.65.41-2.44.41-.94,0-2.9,0-4.71-2.55l-.2-.29Z"/>
              <path class="cls-3" d="m9.05,77.58c.19,2.29.45,4.26.49,4.57h0c-.01-.07,0,0-.02.08-.02.08-.05.2-.08.33-.07.27-.17.63-.24,1.03-.13.8-.15,1.79.43,2.59.58.79,1.38,1.05,2.03,1.07s1.14-.14,1.34-.22l.32-.14-.28-.64-.32.14s-.52.18-1.03.16c-.51-.02-1.05-.18-1.49-.79-.42-.57-.43-1.35-.31-2.06.06-.36.15-.69.22-.96.04-.14.07-.25.09-.36.02-.11.05-.18.03-.34-.04-.3-.3-2.26-.49-4.52-.19-2.27-.3-4.86-.08-6.31l.05-.35c-1.37.13-.74,5.8-.67,6.72Z"/>
              <path class="cls-3" d="m15.39,82.76l.16.31c.43.84.55,1.8.35,2.5-.2.7-.62,1.15-1.47,1.19-.8.03-1.3-.37-1.55-1.05-.25-.68-.19-1.65.31-2.61l.16-.31c-1.37.18-1.37,2.52-1.14,3.16.33.91,1.16,1.55,2.23,1.51,1.12-.05,1.91-.77,2.12-1.7.31-1.41-.24-3.13-1.19-3Z"/>
              <path class="cls-3" d="m12.43,64.85c-.96.03-1.88.18-2.63.52-.94.43-1.75,1.44-1.15,2.04l.14-.32c.18-.41.63-.79,1.29-1.07.65-.28,1.49-.44,2.37-.47,1.76-.05,3.68.48,4.71,1.63.47.52.85,1.69,1.07,3.14s.31,3.18.33,4.87c.02,1.69-.03,3.34-.09,4.63s-.12,2.21-.12,2.54v.07l.03.06c.68,1.6.42,2.85-.17,3.56-.58.7-1.46.89-2.29.33l-.29-.2-.39.58.29.2c1.1.75,2.44.48,3.22-.46.78-.94,1.03-2.49.27-4.28l.03.14c0-.23.06-1.21.12-2.51.06-1.3.11-2.96.09-4.67-.02-1.71-.11-3.46-.34-4.97-.23-1.5-.58-2.76-1.24-3.5-1.24-1.39-3.34-1.92-5.25-1.87Z"/>
              <path class="cls-3" d="m5.11,72.23c.35,1.18.86,2.19,1.55,2.94.69.75,1.58,1.24,2.62,1.34l.35.03-.18-.67-.1-.06c-.87-.09-1.58-.47-2.17-1.12s-1.06-1.55-1.39-2.66c-.66-2.22-.75-5.22-.29-8.36l.05-.35c-1.7,1.18-.67,8.06-.43,8.91Z"/>
              <path class="cls-3" d="m3.92,64c0,.29.02.53.06.73.04.2.07.37.25.53.09.08.25.14.39.11.14-.02.23-.09.31-.17.14-.14.24-.32.34-.58v-.32s-.05-.43-.05-.43c0,0-.33.66-.51.59-.14-.06-.14-.43-.14-.57-.01-1.03.27-2.74.93-4.73l.11-.33c-1.26.15-1.71,4.18-1.71,5.16Z"/>
              <path class="cls-3" d="m21.73,28.94c0,1.3-.6,2.36-1.34,2.36-.35,0-.69-.25-.95-.69-.25-.44-.39-1.04-.39-1.67,0-.63.14-1.23.39-1.67.25-.44.59-.69.95-.69.74,0,1.34,1.06,1.34,2.36Z"/>
              <path class="cls-3" d="m34.01,28.94c0,1.3-.6,2.36-1.34,2.36-.35,0-.69-.25-.95-.69-.25-.44-.39-1.04-.39-1.67,0-.63.14-1.23.39-1.67.25-.44.59-.69.95-.69.74,0,1.34,1.06,1.34,2.36Z"/>
            </g>
            <g>
              <path class="cls-13" d="m29.57,27.93c-2.58-1.1-5.34-.41-5.22-.19.05,0-1.27-1.88-1.26-1.88.11-.07,2.73-1.81,6.92-.11,1.14.42.77,2.23-.43,2.18Z"/>
              <g class="cls-9">
                <path class="cls-3" d="m29.57,26.8c-2.58-1.1-5.34-.41-5.22-.19.05,0-.71-1.05-.7-1.05-.34.15-.54.28-.57.3,0,.01,1.32,1.88,1.26,1.88.07-.05,1.8-1.11,4.8.1.95.43,1.96-.74,1.41-1.62-.21.36-.58.57-.98.57Z"/>
              </g>
              <path class="cls-3" d="m29.57,28.32c-3.82-1.48-4.9.15-5.56-.37-.07-.44-1.81-1.99-1.16-2.43-.55-.05,5.59-2.42,8.12.67.44.97-.35,2.16-1.41,2.13Zm-3.15-1.45c.82-.06,2,.31,3.15.66.79.03,1.02-1.15.28-1.42-3.18-1.29-5.38-.52-6.19-.12l.84,1.23c.37-.16,1.03-.35,1.93-.35Z"/>
              <path class="cls-13" d="m10.42,24.48c-.81-.17,12.43-4.23,14.2,1.66,1.49,11.93-14.72,13.08-14.92,1.83,0,0-1.23.23-1.23-1.85.09-1.34,1.3-1.36,1.95-1.64Z"/>
              <path class="cls-5" d="m10.06,25.64c1.49-.59,5.72-2.91,12.63-.74,1.14.36,1.91,1.43,1.96,2.62.81-7.81-18.23-3.92-16.14-.73.23-.79,1.15-1.06,1.55-1.14Z"/>
              <g class="cls-9">
                <path class="cls-3" d="m24.62,26.14c-.04-.3-.27-1.23-.36-.4.39,11.04-13.58,12.25-13.64,1.86-.22-1.14-1.81-.44-2.08-1.91-.44,1.72.97,2.54,1.16,2.28.2,11.26,16.42,10.09,14.92-1.83Z"/>
              </g>
              <path class="cls-3" d="m17.09,36.22c-6.95.06-6.81-6.07-8.34-8.15-1.28-1.27-.77-3.67,1.49-3.93-.6-.28,13.05-4.34,14.78,1.95.39,4.8-2.02,10.46-7.92,10.13Zm-7.37-8.65c.21,0,.39.19.38.4-.56,8.8,13.86,10.79,14.1.06.26-1.56,0-3.25-1.63-3.79-6.53-2.04-12.87.05-13.71,1.88.04,1.05.23,1.48.85,1.45Zm.7-3.08h0,0Z"/>
              <path class="cls-3" d="m22.64,27.15c.54,4.63-4.73,9.3-9.15,5.41-1.33-1.35-1.82-3.8-1.88-5.46.06-1.85,2.75-1.92,4.04-2.21,1.91-.1,7.06-.25,6.99,2.26Z"/>
              <g class="cls-6">
                <path class="cls-4" d="m19.26,24.99l-5.76,7.57c-.76-.8-1.22-1.85-1.49-2.87,2.75-2.99,2.43-5.75,7.25-4.7Z"/>
              </g>
              <g class="cls-6">
                <path class="cls-4" d="m22.33,26.11l-5.93,7.79c-.71-.06-1.31-.24-1.83-.52l6.16-8.09c.62.16,1.23.28,1.6.82Z"/>
              </g>
              <path class="cls-3" d="m16.87,34.22c-4.7.29-7.03-7.12-4.57-8.72,3.59-1.51,10.46-1.6,10.64,1.67-.18,4.14-1.75,7.03-6.07,7.05Zm-4.32-8.18c-1.72,1.61.23,7.77,4.32,7.59,4.13.78,7.19-6.35,4.53-7.84-1.86-.57-5.48-1.29-8.85.25h0Z"/>
              <path class="cls-13" d="m42.65,24.48c.81-.17-12.43-4.23-14.2,1.66-1.49,11.93,14.72,13.08,14.92,1.83,0,0,1.23.23,1.23-1.85-.09-1.34-1.3-1.36-1.95-1.64Z"/>
              <path class="cls-5" d="m43,25.64c-1.49-.59-5.72-2.91-12.63-.74-1.14.36-1.91,1.43-1.96,2.62-.81-7.81,18.23-3.92,16.14-.73-.23-.79-1.15-1.06-1.55-1.14Z"/>
              <g class="cls-9">
                <path class="cls-3" d="m28.44,26.14c.04-.3.27-1.23.36-.4-.39,11.04,13.58,12.25,13.64,1.86.22-1.14,1.81-.44,2.08-1.91.44,1.72-.97,2.54-1.16,2.28-.2,11.26-16.42,10.09-14.92-1.83Z"/>
              </g>
              <path class="cls-3" d="m35.97,36.22c-5.9.32-8.31-5.33-7.92-10.13,2.06-6.59,17.86-2.48,16.94.04,0,.92-.23,1.57-.67,1.95-1.53,2.08-1.4,8.21-8.34,8.15Zm-.1-12.85c-2.69.12-8.11.24-7.01,4.66.25,10.73,14.66,8.74,14.1-.06-.01-.24.23-.45.47-.39.55-.04.73-.44.76-1.46-.09-1.07-1.15-.98-1.73-1.28-.61-.32-3.05-1.46-6.59-1.46Z"/>
              <path class="cls-3" d="m41.45,27.1c-.07,2.09-.79,5.17-2.96,6.29-3.15,1.59-7.32-.31-7.77-3.93-.22-1.32-.84-3.41.87-3.95,1.96-.79,9.6-1.42,9.87,1.6Z"/>
              <g class="cls-6">
                <path class="cls-4" d="m37.82,24.94s-5.64,7.41-5.68,7.46c-.75-.79-1.18-1.83-1.43-2.95,2.66-2.95,2.3-5.4,7.11-4.51Z"/>
              </g>
              <g class="cls-6">
                <path class="cls-4" d="m40.96,25.97c-.12.17-5.86,7.69-5.98,7.86-.69-.11-1.27-.31-1.77-.59l6.05-7.95c.52.07,1.22.35,1.7.68Z"/>
              </g>
              <path class="cls-3" d="m36.19,34.22c-4.32-.02-5.89-2.91-6.07-7.05.18-3.27,7.05-3.18,10.64-1.67,2.46,1.6.14,9.01-4.57,8.72Zm-.17-9.11c-1.76,0-3.33.36-4.36.67-2.67,1.49.39,8.62,4.52,7.84,4.1.19,6.04-5.98,4.32-7.59h0c-1.51-.69-3.06-.93-4.49-.93Z"/>
            </g>
          </g>
        </g>
      </g>
    </g>
  </g>
</svg>