<?xml version="1.0" encoding="UTF-8"?>
<svg id="_Слой_2" data-name="Слой 2" xmlns="http://www.w3.org/2000/svg" viewBox="0 0 678.77 312.78">
  <defs>
    <style>
      .cls-1 {
        fill: #f48c7f;
      }

      .cls-2 {
        fill: #f7a491;
      }

      .cls-3 {
        fill: #fef6e4;
      }

      .cls-4 {
        fill: #0b0a08;
      }

      .cls-5 {
        fill: #f4c338;
      }

      .cls-6 {
        fill: #faa928;
      }

      .cls-7 {
        fill: #f16d4a;
      }

      .cls-8 {
        fill: #35974d;
      }

      .cls-9 {
        fill: #352424;
      }
    </style>
  </defs>
  <g id="_Слой_1-2" data-name="Слой 1">
    <g id="_Главная" data-name="Главная">
      <g>
        <polygon class="cls-3" points="0 137.24 21.02 163.64 70.4 156.6 91.64 190.96 67.3 165.7 16.1 176.28 0 137.24"/>
        <path class="cls-8" d="m651.52,291.76c0,11.61-137.62,21.02-307.38,21.02s-307.38-9.41-307.38-21.02,137.62-21.02,307.38-21.02,307.38,9.41,307.38,21.02Z"/>
        <g>
          <path class="cls-6" d="m149.67,153.37s14.11,23.55,14.5,27.85c.35,3.85-4.87,21.66-8.65,31.35-.72,1.84-.13,3.93,1.46,5.11l28.93,21.56,17.87-5.71h0c-1.3-4.06-5.21-6.69-9.46-6.36l-9.08.71s-11.39-7.93-11.42-11.86c-.02-3.93,1.25-10.73,1.25-10.73l8.72-13.2c3.05-4.61,6.51-10.19,9.28-16.03,4.71-9.93,4.24-21.54-1.16-31.11l-7.12-12.65-35.11,21.06Z"/>
          <path class="cls-6" d="m275.33,94.43l12.48,24.11s23.95,4.99,27.06,7.46c4.93,3.92,6.93,10.18,6.93,10.18,0,0,2.27,10.32.92,12.94-.21.41-.65.8-1.24,1.16-4.63,2.85-10.62-.46-10.79-5.89-.08-2.52-.23-4.79-.5-5.65-.73-2.3-1.85-2.17-1.85-2.17l-27.39-3.58-16.63-23.31,11-15.25Z"/>
          <path class="cls-5" d="m233.75,60.08l-32.77,23.39-63.39,24.38c-7.01,2.69-12.47,8.31-15.02,15.36-2.98,8.25-6.3,19.97-6.57,31.7-.49,21.56-4.46,44.98-15.3,49.18l-6.91,2.21c-1.86.59-3.15,2.3-3.22,4.25-.15,4.18-.55,11.17-1.57,13.52-1.49,3.43-10.48,28.45-9.73,30.79.75,2.34,20.43,11.93,20.43,11.93l13.06-4.17v-.02c-.66-4.44-4.22-7.87-8.67-8.43-5.21-.65-11.39-2.01-12.44-4.86l12.36-27.57s27.41-9.74,31.12-15.85c3.71-6.11,19.1-51.13,31.62-55.87,12.52-4.74,66.04-9.77,66.04-9.77l32.91,61.92,15.57,6.63,17.38-5.55h0c-1.22-3.83-4.52-6.62-8.49-7.21l-10.14.37h0c-7.12-7.6-13.57-20.43-16.56-30.4l-10.96-36.48s24.49-25.79,25.79-34.81c1.3-9.03.57-22.08.57-22.08,0,0,18.95-21.56,21.96-24.48,3-2.93,8.75-5.75,12.53-6.22,3.79-.47,17.78.96,20.19-1.53,2.4-2.49,5.24-15.95,4.38-17.88-.87-1.94-25.56-1.43-25.56-1.43l-4.58-7.4-20.91-.47c-5.9-.13-11.53,2.44-15.29,6.97l-6.83,8.23s-31.99,32.37-30.98,31.67Z"/>
          <path class="cls-5" d="m124.32,121.98s-20.86-8.66-13.41-30.41c7.45-21.76,20.8-26.76,20.8-26.76,0,0-19.47.87-29.63,21.09-10.15,20.22,1.19,37.82,19.06,49.83,17.87,12.01,3.17-13.75,3.17-13.75Z"/>
          <path class="cls-6" d="m271.57,20.18s-.6,25.46,1.12,34.14c1.72,8.68,13.54,9.38,21.18,8.52,7.64-.86-.8-50.34-8.42-50.28-7.63.06-13.88,7.62-13.88,7.62Z"/>
        </g>
        <g>
          <path class="cls-2" d="m556.28,268.63s.9,7.73.9,9.04v1.31l-.64,1.33-.26.53,4.62,6.48s18.56.28,18.97.28-2.48-4.48-2.48-4.48c0,0-6.14-4.62-7.24-7.86-1.1-3.24.94-10,.94-10l-14.81,3.38Z"/>
          <path class="cls-2" d="m466.81,222.4s-6.61,4.1-7.64,4.92l-1.03.81-.65,1.33-.26.53-7.95.41s-11.76-14.36-12.01-14.69,3.38.49,3.38.49c0,0,7.42,1,10.65-.15,3.23-1.15,9.75-7.58,9.75-7.58l5.75,13.92Z"/>
          <path class="cls-4" d="m526.88,149.91l-71.21,60.64,10.97,15.52s69.88-43.9,73.71-44.42c3.83-.52,9.84.83,10.57,3.63.72,2.79,2.96,85.51,2.96,85.51h19.01l9.91-105.54-55.92-15.33Z"/>
          <g>
            <path class="cls-2" d="m629.47,63.42c5.27-3.45,17.65-16.73,21.84-21.25.05-.53.45-3.6,3.82-7.51,2.38-2.76,4.18-9.05,5.75-7.26,1.56,1.78-2.31,6.78-.54,6.81,1.77.03,10.58-9.86,12-8.25,1.42,1.62-7.53,10.41-5.94,10.44,1.59.03,8.85-8.88,10.85-6.6,2,2.28-9.51,9.69-8.44,10.92,1.07,1.23,8.21-3.63,9.82-1.79,1.61,1.84-10.06,6.17-9.13,6.19.93.02,7.67-.16,7.72,1.13.06,1.47-17.04,3.75-19.13,6.29h0c-4.47,7.11-12.42,20.1-20.47,25.8-9.85,6.97-32.63,21.77-32.63,21.77l-11.31-14.61s29.57-17.98,35.82-22.08Z"/>
            <path class="cls-1" d="m660.33,37.36c.44.86.63,1.8.69,2.75-.03.15.38,3.21-2.22,5.53,1.02-1.89,2.13-3.99,1.54-8.28Z"/>
          </g>
          <g>
            <path class="cls-2" d="m525.08,47.44c-4.18-4.71-12.65-20.76-15.52-26.22.1-.53.51-3.59-1.72-8.24-1.58-3.28-1.67-9.83-3.65-8.51-1.97,1.31.46,7.15-1.26,6.72-1.72-.43-7.63-12.29-9.42-11.1-1.79,1.19,4.54,12.02,3,11.63-1.54-.39-6.21-10.88-8.74-9.2-2.53,1.68,6.65,11.84,5.29,12.74-1.36.9-6.97-5.65-9.01-4.3-2.03,1.35,8.1,8.59,7.19,8.36-.91-.23-7.36-2.16-7.75-.93-.44,1.4,15.47,8.07,16.83,11.07h0c2.45,8.03,6.73,22.65,13.01,30.26,7.69,9.31,25.8,29.54,25.8,29.54l14.74-11.15s-23.84-25.09-28.79-30.67Z"/>
            <path class="cls-1" d="m502.11,14.21c-.65.72-1.08,1.58-1.38,2.47,0,.16-1.21,3,.7,5.92-.49-2.09-1.02-4.41.68-8.39Z"/>
          </g>
          <path class="cls-3" d="m537.03,58.23l-13.29,17.34,16.5,24.54s-1.55,18.24-3.93,23.93c-2.38,5.69-16.15,29.08-16.15,29.08,0,0,33.43,20.49,66.14,17.49,0,0,9.21-47.39,11.8-51.94,2.59-4.55,27.53-27.11,27.53-27.11l-12.11-19.56-20.91,11.59s-38.21-6.17-40.05-8.01c-1.84-1.84-15.52-17.34-15.52-17.34Z"/>
          <path class="cls-7" d="m580.15,22.77s-12.9-6.83-17.32,4.48c0,0-11.59-1.17-9.59,10.83,0,0-11.66,5.86-4.28,20.97,0,0-3.24,14.21,13.39,15.11,0,0,2.48,5.04,10.07,3.86,7.59-1.17,9.52-3.17,9.52-3.17,0,0,13.46,3.93,17.53-8.21,0,0,9.25-2.21,3.04-14.07,0,0,8.07-15.38-6.14-20.01,0,0-1.66-15.73-16.21-9.8Z"/>
          <path class="cls-2" d="m585.36,56.09c-1.05,2.92-.3,5.87,1.68,6.58,1.98.71,4.43-1.09,5.48-4.01,1.05-2.93.29-5.87-1.68-6.58-1.98-.71-4.43,1.09-5.48,4.01Z"/>
          <path class="cls-2" d="m550.56,48.91c-.15,3.1,1.44,5.7,3.53,5.8,2.1.1,3.92-2.34,4.07-5.44.15-3.1-1.44-5.7-3.53-5.8-2.1-.1-3.92,2.34-4.07,5.44Z"/>
          <path class="cls-2" d="m565.32,69.47c0,.2-1.68,7.41-2.56,11.21-.33,1.42.39,2.87,1.71,3.48,3.55,1.62,10.52,3.88,15.35-.49.44-.4.68-.97.65-1.57l-.59-17.19-14.56,4.55Z"/>
          <path class="cls-1" d="m564.42,73.5c3.75,1.89,8.48,1.93,13.77-1.17.67-.39,1.3-.81,1.9-1.25l-.21-6.16-14.56,4.55c0,.1-.39,1.84-.9,4.03Z"/>
          <path class="cls-2" d="m575.64,29.78s6.35,1.68,10.09,7.86c3.73,6.18,5.8,24.05-7.54,31.86-13.33,7.81-23.03-4.29-22.78-15.74.25-11.45,5.34-26.08,20.23-23.98Z"/>
          <path class="cls-4" d="m552.9,292.07c-2.83-.36,2.06-10.19,3.64-11.76l20.86,2.81s10.04,4.66,12.42,7.04c.56.56.64,1.55-1.81,1.92-7.87,1.17-28.82.8-35.1,0Z"/>
          <path class="cls-4" d="m450.34,239.78c2.45,1.47,6.9-8.1,7.16-10.31l-16.84-13.26s-13-3.73-15.62-1.1c-2.38,2.38,19.74,21.34,25.3,24.68Z"/>
        </g>
        <g>
          <rect class="cls-4" x="348.7" y="189.71" width="15.15" height="102.05"/>
          <rect class="cls-9" x="44.08" y="185.73" width="624.4" height="15.15" transform="translate(-40.76 111.69) rotate(-16.87)"/>
        </g>
      </g>
    </g>
  </g>
</svg>