<?xml version="1.0" encoding="UTF-8"?>
<svg id="_Слой_2" data-name="Слой 2" xmlns="http://www.w3.org/2000/svg" xmlns:xlink="http://www.w3.org/1999/xlink" viewBox="0 0 60.37 61.77">
  <defs>
    <style>
      .cls-1 {
        fill: #fff;
      }

      .cls-2 {
        fill: url(#linear-gradient);
      }
    </style>
    <linearGradient id="linear-gradient" x1="1.64" y1="6.77" x2="62.58" y2="58.25" gradientUnits="userSpaceOnUse">
      <stop offset="0" stop-color="#ffe185"/>
      <stop offset=".21" stop-color="#ffbb36"/>
      <stop offset=".38" stop-color="#ff5176"/>
      <stop offset=".52" stop-color="#f63395"/>
      <stop offset=".74" stop-color="#a436d2"/>
      <stop offset="1" stop-color="#5f4eed"/>
    </linearGradient>
  </defs>
  <g id="_Слой_1-2" data-name="Слой 1">
    <g id="_Главная" data-name="Главная">
      <g>
        <ellipse class="cls-2" cx="30.19" cy="30.88" rx="30.19" ry="30.88"/>
        <g>
          <path class="cls-1" d="m39.56,19.2c-1.15,0-2.07.95-2.07,2.12s.93,2.12,2.07,2.12,2.07-.95,2.07-2.12-.93-2.12-2.07-2.12Z"/>
          <path class="cls-1" d="m30.33,21.92c-4.81,0-8.72,4-8.72,8.92s3.91,8.92,8.72,8.92,8.72-4,8.72-8.92-3.91-8.92-8.72-8.92Zm0,14.63c-3.08,0-5.58-2.56-5.58-5.71s2.5-5.71,5.58-5.71,5.58,2.56,5.58,5.71-2.5,5.71-5.58,5.71Z"/>
          <path class="cls-1" d="m37.25,48.95h-14.13c-5.86,0-10.63-4.88-10.63-10.88v-14.46c0-6,4.77-10.88,10.63-10.88h14.13c5.86,0,10.63,4.88,10.63,10.88v14.46c0,6-4.77,10.88-10.63,10.88Zm-14.13-32.81c-4.03,0-7.3,3.35-7.3,7.47v14.46c0,4.12,3.28,7.47,7.3,7.47h14.13c4.03,0,7.3-3.35,7.3-7.47v-14.46c0-4.12-3.28-7.47-7.3-7.47h-14.13Z"/>
        </g>
      </g>
    </g>
  </g>
</svg>