<?xml version="1.0" encoding="UTF-8"?>
<svg id="_Слой_2" data-name="Слой 2" xmlns="http://www.w3.org/2000/svg" viewBox="0 0 60.37 61.77">
  <defs>
    <style>
      .cls-1 {
        fill: #00c9d0;
      }

      .cls-1, .cls-2, .cls-3 {
        fill-rule: evenodd;
      }

      .cls-2 {
        fill: #fff;
      }

      .cls-3 {
        fill: #ff1753;
      }
    </style>
  </defs>
  <g id="_Слой_1-2" data-name="Слой 1">
    <g id="_Главная" data-name="Главная">
      <g>
        <ellipse cx="30.19" cy="30.88" rx="30.19" ry="30.88"/>
        <g>
          <path class="cls-3" d="m38.12,25.57c2.45,1.79,5.44,2.84,8.68,2.84v-6.37c-.61,0-1.22-.07-1.82-.2v5.01c-3.24,0-6.23-1.05-8.68-2.84v13c0,6.5-5.16,11.77-11.51,11.77-2.37,0-4.58-.73-6.41-1.99,2.09,2.19,5.01,3.54,8.23,3.54,6.36,0,11.52-5.27,11.52-11.78v-13h0Zm2.25-6.43c-1.25-1.4-2.07-3.2-2.25-5.2v-.82h-1.73c.43,2.54,1.92,4.7,3.98,6.02h0Zm-17.97,22.67c-.7-.94-1.08-2.08-1.07-3.26,0-2.97,2.36-5.39,5.27-5.39.54,0,1.08.08,1.6.25v-6.51c-.6-.08-1.21-.12-1.82-.11v5.07c-.52-.17-1.06-.25-1.6-.25-2.91,0-5.27,2.41-5.27,5.39,0,2.1,1.18,3.92,2.9,4.81Z"/>
          <path class="cls-2" d="m36.29,24.02c2.45,1.79,5.44,2.84,8.68,2.84v-5.01c-1.81-.39-3.41-1.36-4.61-2.7-2.06-1.31-3.54-3.48-3.98-6.02h-4.54v25.44c-.01,2.97-2.36,5.37-5.27,5.37-1.71,0-3.23-.83-4.19-2.13-1.72-.89-2.9-2.71-2.9-4.81,0-2.97,2.36-5.39,5.27-5.39.56,0,1.09.09,1.6.25v-5.07c-6.25.13-11.27,5.35-11.27,11.77,0,3.2,1.25,6.11,3.28,8.23,1.83,1.26,4.04,1.99,6.41,1.99,6.36,0,11.51-5.27,11.51-11.78v-13Z"/>
          <path class="cls-1" d="m44.97,21.85v-1.36c-1.63,0-3.23-.46-4.61-1.35,1.22,1.37,2.84,2.31,4.61,2.7Zm-8.59-8.72c-.04-.24-.07-.49-.1-.73v-.82h-6.27v25.44c-.01,2.97-2.36,5.37-5.27,5.37-.85,0-1.66-.21-2.37-.57.96,1.29,2.48,2.13,4.19,2.13,2.9,0,5.26-2.4,5.27-5.37V13.13h4.54Zm-10.03,13.67v-1.44c-.52-.07-1.05-.11-1.58-.11-6.36,0-11.52,5.27-11.52,11.77,0,4.08,2.03,7.67,5.1,9.78-2.03-2.12-3.28-5.03-3.28-8.23,0-6.42,5.02-11.64,11.27-11.77h0Z"/>
        </g>
      </g>
    </g>
  </g>
</svg>